<svg width="525" height="500" viewBox="0 0 525 500" fill="none" xmlns="http://www.w3.org/2000/svg">
<path d="M179.889 135.4C176.945 146.339 170.822 156.158 162.295 163.616C153.768 171.073 143.22 175.834 131.987 177.294C120.753 178.755 109.339 176.85 99.1886 171.82C89.0382 166.791 80.608 158.863 74.965 149.041C69.3219 139.218 66.7197 127.943 67.4877 116.641C68.2557 105.339 72.3593 94.5185 79.2793 85.5497C86.1992 76.5809 95.6243 69.8666 106.362 66.2567C117.099 62.6467 128.666 62.3033 139.599 65.2699C146.849 67.2292 153.643 70.5974 159.591 75.1821C165.54 79.7668 170.527 85.4783 174.269 91.9905C178.01 98.5027 180.432 105.688 181.396 113.136C182.36 120.584 181.848 128.15 179.889 135.4Z" fill="#9E1616" fill-opacity="0.4"/>
<path d="M168.109 132.81C165.866 141.147 161.201 148.631 154.702 154.315C148.204 159.999 140.165 163.628 131.604 164.741C123.042 165.855 114.343 164.403 106.607 160.57C98.871 156.737 92.4461 150.695 88.1455 143.209C83.8449 135.723 81.862 127.129 82.4477 118.515C83.0335 109.902 86.1616 101.656 91.436 94.8206C96.7105 87.9856 103.894 82.8691 112.078 80.1187C120.262 77.3684 129.077 77.1078 137.409 79.3699C148.565 82.3879 158.066 89.7128 163.823 99.734C169.58 109.755 171.122 121.652 168.109 132.81Z" fill="#9E1616" fill-opacity="0.4"/>
<path d="M166.739 131.83C166.758 131.594 166.795 131.36 166.849 131.13C166.939 130.63 167.079 129.95 167.239 129.13C167.329 128.68 167.439 128.19 167.549 127.64C167.659 127.09 167.669 126.47 167.749 125.81C167.955 124.296 168.049 122.768 168.029 121.24C168.104 117.049 167.541 112.871 166.359 108.85C163.619 99.1788 157.599 90.7626 149.332 85.0444C141.065 79.3262 131.066 76.6625 121.049 77.5099C119.004 77.6725 116.973 77.9766 114.969 78.4199C113.969 78.6499 112.969 78.9799 111.969 79.2599C110.946 79.5191 109.943 79.8534 108.969 80.2599C106.971 81.0389 105.026 81.9509 103.149 82.9899C101.269 84.1008 99.4684 85.3405 97.7594 86.6999C94.2216 89.4685 91.1553 92.7915 88.6794 96.5399C86.1547 100.409 84.2265 104.637 82.9594 109.08C81.7882 113.554 81.3027 118.18 81.5194 122.8C81.7682 127.294 82.7442 131.718 84.4094 135.9C85.2037 137.936 86.1324 139.917 87.1894 141.83C88.2833 143.673 89.4993 145.44 90.8294 147.12C92.1223 148.773 93.5326 150.33 95.0494 151.78C96.5516 153.176 98.1488 154.465 99.8294 155.64C106.145 160.086 113.532 162.769 121.229 163.41C127.342 163.9 133.489 163.094 139.269 161.045C145.048 158.996 150.33 155.75 154.769 151.52C157.824 148.646 160.423 145.325 162.479 141.67C163.266 140.358 163.958 138.991 164.549 137.58C164.819 136.98 165.089 136.43 165.299 135.91L165.789 134.46L166.479 132.46C166.553 132.235 166.639 132.015 166.739 131.8C166.708 132.032 166.651 132.26 166.569 132.48C166.419 132.97 166.219 133.63 165.969 134.48L165.509 135.95C165.319 136.48 165.049 137.03 164.799 137.65C164.237 139.084 163.569 140.475 162.799 141.81C160.771 145.515 158.188 148.887 155.139 151.81C150.668 156.153 145.324 159.496 139.462 161.615C133.6 163.734 127.354 164.581 121.139 164.1C113.302 163.47 105.774 160.764 99.3294 156.26C97.6105 155.068 95.9766 153.758 94.4394 152.34C92.8868 150.863 91.4431 149.275 90.1194 147.59C88.7606 145.878 87.5178 144.078 86.3994 142.2C85.3153 140.266 84.3631 138.262 83.5494 136.2C81.8727 131.952 80.8934 127.461 80.6494 122.9C80.4191 118.187 80.9046 113.467 82.0894 108.9C83.3794 104.36 85.3483 100.041 87.9294 96.0899C90.4676 92.2815 93.6008 88.9052 97.2094 86.0899C98.9587 84.7101 100.8 83.4506 102.719 82.3199C104.634 81.2632 106.619 80.3378 108.659 79.5499C109.632 79.1247 110.635 78.7704 111.659 78.4899C112.659 78.2099 113.659 77.8699 114.729 77.6399C124.501 75.5006 134.706 76.6831 143.729 80.9999C149.326 83.7276 154.278 87.6143 158.257 92.4021C162.236 97.1899 165.151 102.769 166.809 108.77C167.965 112.846 168.484 117.076 168.349 121.31C168.342 122.85 168.219 124.388 167.979 125.91C167.889 126.57 167.829 127.18 167.729 127.74C167.629 128.3 167.489 128.74 167.379 129.23L166.899 131.23C166.861 131.434 166.808 131.634 166.739 131.83Z" fill="#9E1616" fill-opacity="0.4"/>
<path d="M166.289 132.18C166.039 132.12 166.359 130.18 166.569 126.82C166.865 122.044 166.423 117.251 165.259 112.61C164.453 109.443 163.299 106.374 161.819 103.46C160.123 100.142 158.006 97.0562 155.519 94.2799C154.183 92.7799 152.736 91.3826 151.189 90.0999C149.59 88.7533 147.888 87.5329 146.099 86.45C144.253 85.3289 142.324 84.3495 140.329 83.52C138.267 82.6798 136.144 81.9946 133.979 81.47C131.81 80.9761 129.607 80.6419 127.389 80.47C125.232 80.3048 123.066 80.3048 120.909 80.47C116.817 80.8047 112.795 81.731 108.969 83.22C105.494 84.5789 102.208 86.3768 99.1893 88.57C96.5565 90.5092 94.1424 92.7289 91.9893 95.19C88.8589 98.8101 86.3055 102.891 84.4193 107.29C83.0593 110.43 82.4993 112.29 82.2393 112.2C81.9793 112.11 82.2393 110.2 83.2393 106.84C84.7446 102.064 87.1176 97.6058 90.2393 93.69C94.8897 87.8125 100.97 83.2263 107.899 80.37C111.981 78.6764 116.298 77.6142 120.699 77.22C123.027 77.0024 125.368 76.9757 127.699 77.14C130.097 77.322 132.477 77.6864 134.819 78.23C137.151 78.8026 139.438 79.548 141.659 80.46C143.807 81.3649 145.88 82.4383 147.859 83.6699C149.774 84.8598 151.593 86.1972 153.299 87.6699C154.938 89.0768 156.466 90.608 157.869 92.25C160.474 95.2752 162.657 98.6391 164.359 102.25C165.796 105.387 166.857 108.683 167.519 112.07C168.536 116.972 168.641 122.02 167.829 126.96C167.239 130.43 166.519 132.23 166.289 132.18Z" fill="#9E1616" fill-opacity="0.4"/>
<path d="M122.579 146.81L120.689 154.17L114.119 152.48L115.959 145.32C109.549 143.26 103.829 139.62 100.959 135.87L106.619 128.78C109.721 132.379 113.704 135.111 118.179 136.71L120.989 125.71C114.149 122.07 106.619 117.55 108.989 108.15C110.769 101.15 117.369 96.4899 128.049 97.9699L129.919 90.6699L136.519 92.3799L134.679 99.5399C139.316 101.007 143.538 103.553 146.999 106.97L141.639 114.21C139.008 111.62 135.887 109.58 132.459 108.21L129.599 119.38C136.459 122.96 143.849 127.45 141.479 136.72C139.729 143.56 133.219 148.2 122.579 146.81ZM123.449 116.07L125.839 106.73C122.149 106.63 120.279 108.18 119.729 110.35C119.179 112.52 120.789 114.41 123.449 116.07ZM130.699 134.81C131.289 132.5 129.699 130.81 127.129 129.06L124.799 138.13C128.269 138.25 130.159 136.9 130.699 134.81Z" fill="#E0E0E0"/>
<path d="M94.1093 220.39C96.8027 227.498 97.3268 235.244 95.6153 242.65C93.9037 250.056 90.0335 256.787 84.4944 261.992C78.9554 267.197 71.9966 270.641 64.499 271.89C57.0014 273.138 49.302 272.133 42.3755 269.003C35.449 265.874 29.6068 260.759 25.5884 254.307C21.5701 247.856 19.5562 240.357 19.8018 232.76C20.0474 225.163 22.5414 217.81 26.9681 211.631C31.3947 205.452 37.5551 200.726 44.6693 198.05C54.188 194.458 64.7435 194.794 74.0148 198.983C83.2861 203.173 90.514 210.873 94.1093 220.39Z" fill="#9E1616" fill-opacity="0.4"/>
<path d="M86.6889 223.61C88.7454 229.025 89.1489 234.929 87.8484 240.573C86.5479 246.218 83.6018 251.35 79.3831 255.319C75.1645 259.288 69.8629 261.917 64.1497 262.871C58.4364 263.826 52.5684 263.064 47.2884 260.682C42.0084 258.3 37.554 254.404 34.489 249.489C31.424 244.574 29.8863 238.86 30.0705 233.071C30.2547 227.281 32.1526 221.676 35.5239 216.966C38.8951 212.256 43.5882 208.652 49.0089 206.61C56.2601 203.87 64.3024 204.122 71.368 207.31C78.4337 210.498 83.9444 216.361 86.6889 223.61Z" fill="#9E1616" fill-opacity="0.4"/>
<path d="M85.5194 223.61C85.4327 223.477 85.359 223.337 85.2994 223.19C85.1594 222.88 84.9594 222.46 84.7194 221.92L84.2994 220.99C84.1294 220.66 83.9094 220.31 83.6894 219.92C83.2065 219.015 82.6584 218.146 82.0494 217.32C80.4464 215.012 78.5007 212.962 76.2794 211.24C73.0478 208.691 69.3136 206.855 65.322 205.852C61.3305 204.849 57.1719 204.702 53.1194 205.42C48.0248 206.341 43.2661 208.598 39.3294 211.96C38.2631 212.852 37.2607 213.818 36.3294 214.85C35.8694 215.37 35.4594 215.94 35.0194 216.49C34.5677 217.035 34.1629 217.617 33.8094 218.23C33.0254 219.435 32.3238 220.691 31.7094 221.99C31.1286 223.334 30.6342 224.713 30.2294 226.12C29.3992 229.017 29.038 232.029 29.1594 235.04C29.3735 241.282 31.6287 247.282 35.5794 252.12C37.4718 254.467 39.7309 256.493 42.2694 258.12C43.5015 258.916 44.7842 259.631 46.1094 260.26C47.4098 260.83 48.746 261.314 50.1094 261.71C52.785 262.506 55.5688 262.877 58.3594 262.81C63.536 262.747 68.6026 261.308 73.0394 258.64C76.9062 256.316 80.1737 253.117 82.5794 249.3C84.553 246.151 85.9104 242.656 86.5794 239C87.1103 236.239 87.2182 233.413 86.8994 230.62C86.8138 229.609 86.6533 228.607 86.4194 227.62C86.3294 227.18 86.2694 226.78 86.1694 226.41C86.0694 226.04 85.9694 225.73 85.8794 225.41L85.4794 224.08C85.4314 223.93 85.3946 223.776 85.3694 223.62C85.4409 223.76 85.4978 223.908 85.5394 224.06L85.9994 225.38C86.0894 225.67 86.1994 226 86.3194 226.38C86.4394 226.76 86.4994 227.15 86.5994 227.59C86.8552 228.575 87.0357 229.578 87.1394 230.59C87.4981 233.405 87.4206 236.259 86.9094 239.05C86.1829 243.161 84.5901 247.071 82.2366 250.519C79.8832 253.967 76.823 256.875 73.2594 259.05C69.8062 261.188 65.9423 262.577 61.9182 263.126C57.8941 263.676 53.7994 263.374 49.8994 262.24C48.4878 261.844 47.1046 261.353 45.7594 260.77C44.4067 260.133 43.0972 259.408 41.8394 258.6C39.2474 256.942 36.9409 254.875 35.0094 252.48C30.9618 247.544 28.6559 241.41 28.4494 235.03C28.321 231.956 28.6959 228.883 29.5594 225.93C29.9635 224.49 30.4681 223.08 31.0694 221.71C31.761 220.388 32.5428 219.115 33.4094 217.9C33.7754 217.275 34.19 216.68 34.6494 216.12C35.0994 215.57 35.5194 214.99 35.9894 214.45C36.9216 213.406 37.924 212.427 38.9894 211.52C43.009 208.098 47.87 205.813 53.0694 204.9C57.1816 204.177 61.4007 204.338 65.4458 205.373C69.4909 206.407 73.2693 208.291 76.5294 210.9C78.7571 212.659 80.6971 214.754 82.2794 217.11C82.8809 217.952 83.4191 218.838 83.8894 219.76C84.0994 220.16 84.3094 220.51 84.4694 220.85L84.8694 221.8C85.0894 222.35 85.2694 222.8 85.3994 223.09C85.4521 223.26 85.4922 223.434 85.5194 223.61Z" fill="#9E1616" fill-opacity="0.4"/>
<path d="M85.4491 223.98C85.2891 224.04 84.7191 222.89 83.4491 220.98C81.7317 218.267 79.6107 215.833 77.1591 213.76C75.4735 212.357 73.6392 211.143 71.6891 210.14C69.473 209.004 67.1205 208.157 64.6891 207.62C62.0003 207.04 59.2418 206.851 56.4991 207.06C55.0538 207.171 53.6195 207.395 52.2091 207.73C50.7588 208.087 49.3354 208.544 47.9491 209.1C46.5693 209.669 45.2325 210.338 43.9491 211.1C42.7107 211.86 41.5338 212.716 40.4291 213.66C39.3517 214.579 38.3486 215.583 37.4291 216.66C36.5403 217.675 35.7281 218.755 34.9991 219.89C33.6372 221.991 32.5548 224.26 31.7791 226.64C31.1322 228.716 30.7098 230.854 30.5191 233.02C30.237 236.217 30.4495 239.438 31.1491 242.57C31.6391 244.8 32.0591 246.03 31.8891 246.09C31.7191 246.15 31.0891 245.03 30.3191 242.8C29.2584 239.612 28.794 236.256 28.9491 232.9C29.0608 230.574 29.4399 228.269 30.0791 226.03C30.8275 223.461 31.9208 221.005 33.3291 218.73C34.8853 216.205 36.8175 213.932 39.0591 211.99C40.2415 210.967 41.502 210.037 42.8291 209.21C44.2053 208.37 45.6427 207.635 47.1291 207.01C48.6204 206.397 50.1587 205.906 51.7291 205.54C54.7295 204.845 57.8205 204.626 60.8891 204.89C62.3308 205.014 63.7613 205.245 65.1691 205.58C67.7702 206.207 70.2757 207.179 72.6191 208.47C74.6548 209.601 76.5482 210.97 78.2591 212.55C80.736 214.823 82.7703 217.536 84.2591 220.55C85.2791 222.65 85.5691 223.9 85.4491 223.98Z" fill="#9E1616" fill-opacity="0.4"/>
<path d="M67.4092 249.09L69.2792 253.83L65.0392 255.49L63.2292 250.9C58.9292 252.29 54.3892 252.56 51.3492 251.65L51.6392 245.57C54.7425 246.309 57.9839 246.233 61.0492 245.35L58.2692 238.27C53.1092 238.98 47.2692 239.47 44.8692 233.41C43.0992 228.92 44.8692 223.79 51.2392 220.41L49.3992 215.71L53.6292 214.05L55.4492 218.67C58.5431 217.641 61.8379 217.367 65.0592 217.87L64.9892 223.87C62.541 223.493 60.0422 223.608 57.6392 224.21L60.4692 231.41C65.6092 230.66 71.3892 230.2 73.7392 236.17C75.5192 240.59 73.7492 245.67 67.4092 249.09ZM55.8192 232.02L53.4592 226.02C51.4592 227.41 50.9992 229.02 51.5492 230.39C52.0992 231.76 53.7192 232.16 55.8192 232.02ZM67.1192 239.37C66.5392 237.89 64.9892 237.57 62.9192 237.65L65.2192 243.49C67.1492 242.2 67.6492 240.73 67.1192 239.37Z" fill="#E0E0E0"/>
<path d="M471.449 306.43C473.218 311.146 474.041 316.165 473.87 321.199C473.699 326.234 472.538 331.185 470.454 335.771C468.369 340.356 465.401 344.486 461.72 347.924C458.039 351.363 453.716 354.042 448.999 355.81C446.883 356.607 444.701 357.219 442.479 357.64C435.31 358.947 427.916 358.183 421.165 355.437C414.414 352.691 408.586 348.078 404.363 342.137C400.141 336.197 397.7 329.176 397.326 321.898C396.952 314.619 398.661 307.385 402.253 301.044C405.844 294.702 411.169 289.515 417.603 286.092C424.037 282.669 431.313 281.151 438.579 281.717C445.845 282.282 452.8 284.907 458.627 289.284C464.454 293.661 468.912 299.609 471.479 306.43H471.449Z" fill="#9E1616" fill-opacity="0.4"/>
<path d="M464.019 309.65C466.074 315.063 466.476 320.965 465.175 326.607C463.873 332.249 460.928 337.378 456.71 341.345C452.492 345.312 447.193 347.939 441.481 348.892C435.77 349.846 429.905 349.084 424.627 346.702C419.349 344.32 414.897 340.426 411.834 335.513C408.77 330.599 407.233 324.888 407.418 319.1C407.602 313.313 409.499 307.711 412.869 303.002C416.239 298.294 420.93 294.691 426.349 292.65C433.599 289.911 441.64 290.163 448.704 293.351C455.768 296.539 461.277 302.401 464.019 309.65Z" fill="#9E1616" fill-opacity="0.4"/>
<path d="M462.899 309.65C462.811 309.515 462.738 309.37 462.679 309.22C462.529 308.91 462.339 308.5 462.099 307.96L461.669 307.03C461.499 306.7 461.279 306.35 461.069 305.96C460.585 305.056 460.037 304.187 459.429 303.36C457.818 301.055 455.874 299.003 453.659 297.27C448.37 293.09 441.793 290.877 435.053 291.01C428.313 291.144 421.829 293.614 416.709 298C415.663 298.893 414.677 299.855 413.759 300.88C413.299 301.41 412.889 301.98 412.449 302.52C412.002 303.068 411.597 303.65 411.239 304.26C410.457 305.469 409.756 306.729 409.139 308.03C408.557 309.373 408.062 310.753 407.659 312.16C406.825 315.056 406.463 318.068 406.589 321.08C406.803 327.322 409.058 333.322 413.009 338.16C414.899 340.51 417.158 342.536 419.699 344.16C420.923 344.958 422.199 345.673 423.519 346.3C424.84 346.87 426.196 347.355 427.579 347.75C428.935 348.135 430.314 348.429 431.709 348.63C433.076 348.798 434.452 348.871 435.829 348.85C442.569 348.77 449.071 346.351 454.225 342.009C459.38 337.666 462.866 331.668 464.089 325.04C464.628 322.28 464.739 319.454 464.419 316.66C464.333 315.65 464.173 314.647 463.939 313.66C463.849 313.22 463.779 312.81 463.689 312.45L463.389 311.45C463.229 310.89 463.099 310.45 462.999 310.12C462.951 309.97 462.914 309.816 462.889 309.66C462.957 309.802 463.014 309.949 463.059 310.1L463.509 311.42L463.839 312.42C463.939 312.78 464.019 313.19 464.119 313.63C464.378 314.631 464.559 315.651 464.659 316.68C465.018 319.495 464.94 322.349 464.429 325.14C463.706 329.252 462.114 333.163 459.76 336.612C457.407 340.06 454.345 342.968 450.779 345.14C447.327 347.28 443.463 348.67 439.439 349.221C435.415 349.772 431.32 349.472 427.419 348.34C426.009 347.94 424.626 347.449 423.279 346.87C421.924 346.234 420.614 345.505 419.359 344.69C416.765 343.038 414.458 340.975 412.529 338.58C410.553 336.103 408.962 333.342 407.809 330.39C406.727 327.415 406.106 324.293 405.969 321.13C405.842 318.057 406.214 314.984 407.069 312.03C407.481 310.591 407.989 309.181 408.589 307.81C409.221 306.486 409.936 305.204 410.729 303.97C411.104 303.352 411.522 302.76 411.979 302.2C412.429 301.64 412.849 301.07 413.319 300.53C414.251 299.486 415.254 298.507 416.319 297.6C420.337 294.183 425.194 291.901 430.389 290.99C434.505 290.274 438.726 290.443 442.771 291.486C446.817 292.529 450.593 294.423 453.849 297.04C456.077 298.799 458.017 300.894 459.599 303.25C460.201 304.092 460.739 304.978 461.209 305.9C461.419 306.3 461.629 306.65 461.789 306.99L462.189 307.94C462.409 308.49 462.589 308.94 462.719 309.23C462.79 309.365 462.85 309.506 462.899 309.65Z" fill="#9E1616"/>
<path d="M462.789 310.01C462.629 310.08 462.059 308.92 460.789 307.01C459.079 304.295 456.961 301.86 454.509 299.79C452.826 298.384 450.991 297.17 449.039 296.17C446.823 295.034 444.47 294.187 442.039 293.65C439.35 293.07 436.592 292.881 433.849 293.09C432.404 293.201 430.969 293.425 429.559 293.76C428.107 294.112 426.684 294.57 425.299 295.13C423.92 295.702 422.584 296.37 421.299 297.13C420.065 297.893 418.892 298.748 417.789 299.69C416.711 300.591 415.708 301.577 414.789 302.64C413.9 303.655 413.088 304.735 412.359 305.87C410.997 307.971 409.915 310.24 409.139 312.62C408.465 314.705 408.022 316.858 407.819 319.04C407.537 322.24 407.749 325.465 408.449 328.6C408.939 330.83 409.359 332.06 409.189 332.12C409.019 332.18 408.379 331.06 407.609 328.83C406.554 325.641 406.093 322.285 406.249 318.93C406.471 313.906 407.98 309.024 410.629 304.75C412.189 302.231 414.121 299.962 416.359 298.02C417.538 296.989 418.798 296.056 420.129 295.23C421.504 294.388 422.942 293.653 424.429 293.03C425.921 292.427 427.455 291.936 429.019 291.56C430.546 291.214 432.097 290.984 433.659 290.87C436.616 290.678 439.585 290.927 442.469 291.61C447.36 292.784 451.867 295.195 455.559 298.61C458.031 300.887 460.065 303.599 461.559 306.61C462.619 308.69 462.909 309.97 462.789 310.01Z" fill="#9E1616" fill-opacity="0.4"/>
<path d="M444.749 335.13L446.609 339.87L442.379 341.53L440.519 336.9C436.229 338.29 431.689 338.56 428.639 337.65L428.939 331.57C432.039 332.309 435.277 332.233 438.339 331.35L435.559 324.27C430.409 324.97 424.559 325.47 422.159 319.41C420.399 314.92 422.159 309.78 428.539 306.41L426.689 301.71L430.929 300.05L432.749 304.66C435.845 303.639 439.139 303.369 442.359 303.87L442.289 309.87C439.841 309.496 437.342 309.615 434.939 310.22L437.769 317.42C442.909 316.67 448.689 316.21 451.039 322.18C452.809 326.63 451.079 331.71 444.749 335.13ZM433.159 318.06L430.789 312.06C428.789 313.45 428.339 315.06 428.889 316.42C429.439 317.78 431.059 318.2 433.159 318.06ZM444.459 325.41C443.869 323.93 442.329 323.61 440.259 323.68L442.549 329.53C444.519 328.23 444.989 326.77 444.459 325.41Z" fill="#E0E0E0"/>
<path d="M473.89 39.25L343.03 272.82L129.45 290.6L84.8102 410.18L44.0002 386.9L103.94 243.85L305.15 226.07L412.37 39L473.89 39.25Z" fill="#9E1616"/>
<path d="M127.12 413.31L35.1601 486.24L13.0001 371L127.12 413.31Z" fill="#9E1616"/>
<path d="M460.16 487.66C460.16 487.8 362.27 487.92 241.53 487.92C120.79 487.92 22.8799 487.8 22.8799 487.66C22.8799 487.52 120.75 487.4 241.53 487.4C362.31 487.4 460.16 487.52 460.16 487.66Z" fill="#263238"/>
<path d="M524.28 39.26C524.28 39.3126 487.504 39.3577 442.144 39.3577C396.783 39.3577 360 39.3126 360 39.26C360 39.2074 396.768 39.1623 442.144 39.1623C487.519 39.1623 524.28 39.2074 524.28 39.26Z" fill="#263238"/>
<path d="M111.66 466.87L121.67 488.98H126.51L127.2 487.3L128.06 488.98H131.23L130.86 476.07L130.7 468.45L111.66 466.87Z" fill="#455A64"/>
<g opacity="0.3">
<path opacity="0.3" d="M111.66 466.87L121.67 488.98H126.51L127.2 487.3L128.06 488.98H131.23L130.86 476.07L130.7 468.45L111.66 466.87Z" fill="black"/>
</g>
<path d="M155.49 469.24L165.26 488.98H170.09L170.79 487.44L171.64 488.98H174.82L174.45 477.17L174.29 470.18L155.49 469.24Z" fill="#455A64"/>
<g opacity="0.3">
<path opacity="0.3" d="M155.49 469.24L165.26 488.98H170.09L170.79 487.44L171.64 488.98H174.82L174.45 477.17L174.29 470.18L155.49 469.24Z" fill="black"/>
</g>
<path d="M206.27 431.05C207.72 463.87 180.21 480.24 149.07 480.24C117.93 480.24 92.6899 458.92 92.6899 432.62C92.6899 406.32 117.93 385 149.07 385C180.21 385 205.1 404.78 206.27 431.05Z" fill="#455A64"/>
<g opacity="0.3">
<path opacity="0.3" d="M145.14 396.76C145.14 396.76 148.88 395.57 152.38 399.53C155.88 403.49 160.75 410.22 160.75 410.22C160.538 411.338 160.033 412.38 159.289 413.24C158.544 414.1 157.586 414.749 156.51 415.12L145.14 396.76Z" fill="black"/>
</g>
<path d="M111.99 466.74C122.655 466.74 131.3 460.114 131.3 451.94C131.3 443.766 122.655 437.14 111.99 437.14C101.326 437.14 92.6802 443.766 92.6802 451.94C92.6802 460.114 101.326 466.74 111.99 466.74Z" fill="#455A64"/>
<path d="M130 412.39C130 412.39 141.32 394.83 146.5 396.74C151.68 398.65 156.51 415.12 156.51 415.12" fill="#455A64"/>
<path d="M117.2 408.37L116.68 403.61C112.315 401.819 107.827 400.345 103.25 399.2C96.8999 397.75 95.6499 399.2 95.6499 399.2L105.65 413.26L117.2 408.37Z" fill="#455A64"/>
<g opacity="0.3">
<path opacity="0.3" d="M132.31 391.53L136.06 393.76C136.06 393.76 154.25 388.95 168.21 393.76L163.09 389.4C163.09 389.4 146.15 385.76 132.31 391.53Z" fill="black"/>
</g>
<g opacity="0.3">
<path opacity="0.3" d="M111.99 466.74C122.655 466.74 131.3 460.114 131.3 451.94C131.3 443.766 122.655 437.14 111.99 437.14C101.326 437.14 92.6802 443.766 92.6802 451.94C92.6802 460.114 101.326 466.74 111.99 466.74Z" fill="black"/>
</g>
<path d="M107.09 466.74C117.081 466.74 125.18 460.114 125.18 451.94C125.18 443.766 117.081 437.14 107.09 437.14C97.0992 437.14 89 443.766 89 451.94C89 460.114 97.0992 466.74 107.09 466.74Z" fill="#455A64"/>
<g opacity="0.3">
<path opacity="0.3" d="M100.26 445H100.01C99.0106 445 98.2002 445.81 98.2002 446.81V457.07C98.2002 458.07 99.0106 458.88 100.01 458.88H100.26C101.26 458.88 102.07 458.07 102.07 457.07V446.81C102.07 445.81 101.26 445 100.26 445Z" fill="black"/>
</g>
<g opacity="0.3">
<path opacity="0.3" d="M110.66 445H110.41C109.41 445 108.6 445.81 108.6 446.81V457.07C108.6 458.07 109.41 458.88 110.41 458.88H110.66C111.66 458.88 112.47 458.07 112.47 457.07V446.81C112.47 445.81 111.66 445 110.66 445Z" fill="black"/>
</g>
<g opacity="0.3">
<path opacity="0.3" d="M116.11 408.83C116.941 408.45 117.597 407.77 117.946 406.925C118.295 406.081 118.31 405.136 117.99 404.28C113.209 402.225 108.282 400.527 103.25 399.2C96.8999 397.75 95.6499 399.2 95.6499 399.2L105.65 413.26L116.11 408.83Z" fill="black"/>
</g>
<path d="M116.68 409.22L115.41 408.37C111.67 405.87 100.73 398.72 97.9599 398.64C94.1499 398.53 94.1499 401.81 94.1499 404.35C94.1499 406.15 95.6299 421.8 95.6299 421.8" fill="#455A64"/>
<path d="M156.51 415.12C156.51 415.12 156.51 415.12 156.51 415.01L156.4 414.69C156.3 414.39 156.16 413.98 155.99 413.45C155.62 412.37 155.08 410.82 154.33 408.92C153.462 406.701 152.461 404.537 151.33 402.44C150.673 401.199 149.903 400.021 149.03 398.92C148.576 398.341 148.048 397.823 147.46 397.38C146.885 396.897 146.15 396.647 145.4 396.68C144.648 396.768 143.924 397.021 143.28 397.42C142.641 397.787 142.032 398.205 141.46 398.67C140.377 399.564 139.355 400.529 138.4 401.56C136.57 403.56 135.06 405.42 133.82 407.03C132.58 408.64 131.64 410.03 130.99 410.92L130.24 412L130.04 412.28L129.97 412.37L130.03 412.27L130.21 411.98C130.37 411.72 130.61 411.35 130.92 410.88C131.56 409.93 132.49 408.58 133.71 406.95C135.134 405.036 136.656 403.197 138.27 401.44C139.223 400.398 140.249 399.425 141.34 398.53C141.92 398.053 142.539 397.624 143.19 397.25C143.856 396.84 144.603 396.58 145.38 396.49C145.781 396.447 146.186 396.502 146.56 396.65C146.915 396.803 147.251 396.998 147.56 397.23C148.158 397.683 148.696 398.211 149.16 398.8C150.037 399.909 150.807 401.097 151.46 402.35C152.577 404.459 153.559 406.637 154.4 408.87C155.13 410.77 155.65 412.34 156 413.42C156.17 413.96 156.3 414.42 156.38 414.68L156.47 415L156.51 415.12Z" fill="#263238"/>
<path d="M163.09 389.4L163.18 389.46L163.44 389.67L164.44 390.5L168.05 393.56L168.28 393.76L167.98 393.68C165.802 393.062 163.588 392.578 161.35 392.23C158.613 391.806 155.849 391.583 153.08 391.56C147.381 391.499 141.702 392.26 136.22 393.82L133.31 392.12L132.56 391.67L132.37 391.55H132.31H132.38L132.58 391.65L133.35 392.08L136.23 393.71C138.591 393.008 140.997 392.464 143.43 392.08C144.87 391.84 146.43 391.67 148.04 391.52C149.65 391.37 151.37 391.33 153.12 391.36C158.176 391.398 163.204 392.132 168.06 393.54L168 393.66L164.43 390.56L163.43 389.7L163.18 389.48C163.147 389.457 163.116 389.431 163.09 389.4Z" fill="#263238"/>
<g opacity="0.2">
<path opacity="0.2" d="M142.18 438.12C142.09 438.65 141.54 439.05 140.77 439.32C139.833 439.606 138.859 439.748 137.88 439.74C136.9 439.775 135.921 439.653 134.98 439.38C134.2 439.13 133.65 438.75 133.55 438.22C133.45 437.69 133.85 437.13 134.63 436.67C135.616 436.141 136.72 435.869 137.84 435.88C138.957 435.842 140.065 436.09 141.06 436.6C141.85 437.12 142.26 437.63 142.18 438.12Z" fill="#353131"/>
</g>
<path d="M117.88 440.12L117.77 440.05L117.47 439.85L116.99 439.53L116.29 439.14C114.793 438.336 113.181 437.769 111.51 437.46C110.356 437.27 109.189 437.163 108.02 437.14C106.681 437.132 105.344 437.229 104.02 437.43C100.969 437.873 98.0586 439.005 95.5098 440.74C94.8517 441.202 94.2269 441.71 93.6398 442.26C91.9938 443.815 90.716 445.718 89.8998 447.83C89.0497 450.196 88.8868 452.755 89.4298 455.21C89.6547 456.15 89.9904 457.059 90.4298 457.92C90.768 458.563 91.1665 459.172 91.6198 459.74L92.1298 460.35L92.5498 460.76L92.7998 461.01L92.8798 461.1L92.7898 461.03L92.5198 460.78L92.0898 460.39L91.5598 459.79C91.0936 459.225 90.6849 458.616 90.3398 457.97C89.8987 457.103 89.5629 456.187 89.3398 455.24C88.772 452.76 88.9212 450.169 89.7698 447.77C90.0299 447.081 90.3408 446.413 90.6998 445.77C91.444 444.417 92.3917 443.186 93.5098 442.12C94.104 441.564 94.7354 441.05 95.3998 440.58C97.97 438.835 100.904 437.7 103.98 437.26C105.303 437.054 106.641 436.96 107.98 436.98C109.154 437.007 110.324 437.124 111.48 437.33C113.157 437.631 114.775 438.201 116.27 439.02C116.53 439.17 116.76 439.3 116.96 439.43L117.43 439.77L117.72 439.99L117.88 440.12Z" fill="#263238"/>
<path d="M101.96 446.3C101.981 446.496 101.981 446.694 101.96 446.89C101.96 447.31 101.96 447.89 102.03 448.5C102.08 449.87 102.19 451.74 102.24 453.82C102.24 454.34 102.24 454.82 102.24 455.34C102.25 455.819 102.213 456.298 102.13 456.77C102.08 457.182 101.936 457.577 101.709 457.924C101.482 458.27 101.178 458.56 100.82 458.77C100.571 458.898 100.293 458.957 100.014 458.943C99.735 458.929 99.4645 458.842 99.2298 458.69C99.1001 458.609 98.9907 458.5 98.9098 458.37C98.8794 458.327 98.8558 458.28 98.8398 458.23C98.9593 458.384 99.1048 458.516 99.2698 458.62C99.4976 458.747 99.7541 458.814 100.015 458.814C100.276 458.814 100.532 458.747 100.76 458.62C101.089 458.416 101.369 458.14 101.576 457.813C101.784 457.485 101.915 457.115 101.96 456.73C102.031 456.267 102.061 455.798 102.05 455.33C102.05 454.84 102.05 454.33 102.05 453.82C102.05 451.74 101.91 449.82 101.89 448.5C101.89 447.82 101.89 447.27 101.89 446.88C101.901 446.685 101.924 446.492 101.96 446.3Z" fill="#263238"/>
<path d="M112.22 446.3C112.237 446.496 112.237 446.694 112.22 446.89C112.22 447.31 112.22 447.89 112.29 448.5C112.35 449.87 112.46 451.74 112.51 453.82C112.51 454.34 112.51 454.82 112.51 455.34C112.515 455.819 112.478 456.297 112.4 456.77C112.349 457.181 112.204 457.576 111.977 457.922C111.75 458.269 111.447 458.559 111.09 458.77C110.839 458.897 110.56 458.957 110.279 458.943C109.999 458.929 109.726 458.842 109.49 458.69C109.364 458.605 109.255 458.496 109.17 458.37C109.17 458.29 109.1 458.24 109.11 458.23C109.22 458.389 109.363 458.522 109.53 458.62C109.758 458.746 110.014 458.812 110.275 458.812C110.535 458.812 110.792 458.746 111.02 458.62C111.349 458.416 111.629 458.14 111.836 457.813C112.044 457.485 112.175 457.115 112.22 456.73C112.295 456.267 112.328 455.799 112.32 455.33C112.32 454.84 112.32 454.33 112.32 453.82C112.32 451.74 112.18 449.82 112.15 448.5C112.15 447.82 112.15 447.27 112.15 446.88C112.155 446.685 112.178 446.491 112.22 446.3Z" fill="#263238"/>
<path d="M124.96 455.17C124.939 455.255 124.912 455.338 124.88 455.42C124.81 455.58 124.74 455.83 124.6 456.14C124.231 457.005 123.778 457.832 123.25 458.61C122.458 459.76 121.535 460.814 120.5 461.75C119.887 462.304 119.239 462.819 118.56 463.29C117.829 463.787 117.068 464.238 116.28 464.64C114.769 465.418 113.167 466.003 111.51 466.38C110.146 466.671 108.755 466.811 107.36 466.8C106.17 466.8 105.21 466.73 104.55 466.68L103.78 466.62H103.52C103.61 466.609 103.7 466.609 103.79 466.62H104.55C105.21 466.62 106.17 466.68 107.36 466.67C108.745 466.665 110.126 466.514 111.48 466.22C113.131 465.834 114.729 465.249 116.24 464.48C117.004 464.073 117.743 463.619 118.45 463.12C119.123 462.656 119.768 462.152 120.38 461.61C121.411 460.688 122.334 459.651 123.13 458.52C123.663 457.764 124.125 456.961 124.51 456.12C124.66 455.82 124.75 455.58 124.82 455.42C124.89 455.26 124.95 455.12 124.96 455.17Z" fill="#263238"/>
<path d="M101.74 445.89C101.663 445.762 101.58 445.639 101.49 445.52C101.214 445.227 100.833 445.054 100.43 445.04C99.9646 445.046 99.5146 445.208 99.152 445.5C98.7894 445.791 98.5352 446.197 98.43 446.65C98.347 447.024 98.3101 447.407 98.32 447.79C98.32 449.38 98.32 450.79 98.32 451.88V453.12C98.3325 453.27 98.3325 453.42 98.32 453.57C98.2996 453.421 98.2996 453.269 98.32 453.12C98.32 452.79 98.32 452.37 98.32 451.88C98.32 450.83 98.32 449.39 98.25 447.79C98.2444 447.393 98.2846 446.997 98.37 446.61C98.459 446.237 98.6414 445.893 98.9 445.61C99.114 445.374 99.3772 445.188 99.671 445.066C99.9647 444.943 100.282 444.886 100.6 444.9C100.814 444.911 101.023 444.967 101.214 445.063C101.405 445.159 101.574 445.295 101.71 445.46C101.783 445.55 101.84 445.651 101.88 445.76C101.8 445.847 101.753 445.89 101.74 445.89Z" fill="#353131"/>
<path d="M108.51 446.75C108.51 446.75 108.6 448.7 108.6 451.11C108.6 453.52 108.6 455.48 108.51 455.48C108.42 455.48 108.41 453.53 108.41 451.11C108.41 448.69 108.51 446.75 108.51 446.75Z" fill="#353131"/>
<path d="M105.42 438.32C105.42 438.32 105.35 438.32 105.2 438.32H104.51C103.715 438.35 102.923 438.437 102.14 438.58C99.1423 439.131 96.3695 440.542 94.159 442.64C91.9486 444.739 90.3959 447.435 89.69 450.4C89.61 450.67 89.58 450.89 89.54 451.03C89.5329 451.106 89.5126 451.181 89.48 451.25C89.4689 451.177 89.4689 451.103 89.48 451.03C89.48 450.88 89.48 450.66 89.59 450.38C89.7529 449.593 89.9803 448.82 90.27 448.07C91.2269 445.573 92.822 443.37 94.896 441.682C96.9701 439.994 99.4506 438.88 102.09 438.45C102.882 438.311 103.686 438.244 104.49 438.25C104.71 438.238 104.93 438.238 105.15 438.25L105.42 438.32Z" fill="#353131"/>
<path d="M95.7201 419.42C95.7201 419.42 95.7201 419.5 95.6601 419.63L95.4301 420.22C95.3201 420.47 95.2001 420.79 95.0701 421.15C94.9401 421.51 94.7801 421.93 94.6401 422.4C94.5001 422.87 94.3201 423.4 94.1701 423.93C94.0201 424.46 93.8701 425.08 93.7201 425.7C93.4175 427.07 93.1905 428.455 93.0401 429.85C92.9011 431.242 92.8377 432.641 92.8501 434.04C92.8501 434.69 92.8501 435.3 92.9301 435.87C93.0101 436.44 93.0201 436.98 93.0701 437.47C93.1201 437.96 93.1901 438.39 93.2401 438.77C93.2901 439.15 93.3401 439.49 93.3901 439.77L93.5001 440.39C93.5112 440.463 93.5112 440.537 93.5001 440.61C93.4682 440.544 93.4479 440.473 93.4401 440.4L93.3001 439.78C93.2401 439.52 93.1701 439.19 93.1101 438.78C93.0501 438.37 92.9701 437.96 92.9101 437.47C92.8501 436.98 92.7901 436.47 92.7501 435.88C92.7101 435.29 92.6801 434.68 92.6501 434.04C92.6291 432.631 92.6892 431.222 92.8301 429.82C92.9819 428.418 93.2157 427.025 93.5301 425.65C93.6801 425.02 93.8301 424.42 94.0001 423.87C94.1701 423.32 94.3301 422.81 94.4901 422.34C94.6501 421.87 94.8101 421.47 94.9501 421.1C95.0901 420.73 95.2201 420.43 95.3401 420.18C95.4601 419.93 95.5301 419.76 95.6001 419.61L95.7201 419.42Z" fill="#353131"/>
<path d="M96.2802 400.12C96.2802 400.12 96.1302 400.32 95.9002 400.71C95.5996 401.266 95.3903 401.867 95.2802 402.49C95.131 403.419 95.0575 404.359 95.0602 405.3C95.0602 406.37 95.0602 407.54 95.0602 408.77C95.1202 411.23 95.3202 413.45 95.5002 415.05L95.7402 416.94C95.7402 417.15 95.7402 417.32 95.8102 417.46C95.8802 417.6 95.8102 417.64 95.8102 417.64C95.8102 417.64 95.8102 417.58 95.8102 417.47L95.7102 416.96C95.6302 416.51 95.5202 415.87 95.4102 415.07C95.1291 412.981 94.9622 410.878 94.9102 408.77C94.9102 407.54 94.9102 406.36 94.9102 405.29C94.913 404.34 95.0034 403.393 95.1802 402.46C95.3027 401.827 95.5363 401.221 95.8702 400.67C95.9621 400.522 96.0658 400.382 96.1802 400.25L96.2802 400.12Z" fill="#353131"/>
<path d="M132.39 388.51L132.15 388.6L131.47 388.85L128.92 389.72C126.12 390.659 123.37 391.74 120.68 392.96C117.993 394.193 115.457 395.73 113.12 397.54C112.24 398.25 111.55 398.86 111.12 399.3C110.89 399.51 110.72 399.69 110.6 399.8L110.4 399.97L110.57 399.77C110.68 399.65 110.84 399.46 111.07 399.24C111.704 398.605 112.372 398.004 113.07 397.44C115.388 395.584 117.928 394.022 120.63 392.79C123.323 391.557 126.088 390.488 128.91 389.59C129.99 389.24 130.86 388.96 131.47 388.78L132.17 388.57C132.24 388.54 132.314 388.519 132.39 388.51Z" fill="#353131"/>
<path d="M145.3 397.71L145.14 397.84L144.64 398.19C144.21 398.48 143.64 398.93 142.85 399.49C142.06 400.05 141.23 400.76 140.29 401.57C139.35 402.38 138.37 403.32 137.37 404.34C136.37 405.36 135.49 406.4 134.71 407.34C133.93 408.28 133.26 409.2 132.71 409.97C132.16 410.74 131.71 411.38 131.47 411.82L131.14 412.33C131.103 412.389 131.063 412.446 131.02 412.5C131.02 412.5 131.02 412.43 131.11 412.31L131.41 411.78C131.67 411.32 132.07 410.68 132.6 409.9C133.13 409.12 133.78 408.21 134.6 407.23C135.42 406.25 136.27 405.23 137.27 404.23C138.27 403.23 139.27 402.23 140.21 401.45C141.15 400.67 142.03 399.95 142.8 399.4C143.57 398.85 144.19 398.4 144.63 398.15L145.15 397.83L145.3 397.71Z" fill="#353131"/>
<path d="M202.51 423.52C202.694 423.811 202.842 424.123 202.95 424.45C203.258 425.226 203.515 426.021 203.72 426.83C203.923 427.637 204.076 428.455 204.18 429.28C204.231 429.611 204.252 429.946 204.24 430.28C204.145 429.953 204.078 429.618 204.04 429.28C203.93 428.66 203.77 427.79 203.53 426.86C203.29 425.93 203.03 425.08 202.82 424.48C202.698 424.166 202.595 423.846 202.51 423.52Z" fill="#353131"/>
<path d="M193.61 466.05L193.42 466.18L192.88 466.57L191.99 467.2L191.42 467.6L190.75 468.03C188.113 469.77 185.367 471.34 182.53 472.73C181.63 473.157 180.68 473.597 179.68 474.05L178.14 474.71L177.35 475.04L176.54 475.35L174.86 476L173.11 476.6C172.52 476.81 171.91 477 171.29 477.18C170.67 477.36 170.06 477.58 169.42 477.75C166.754 478.502 164.051 479.109 161.32 479.57C158.39 480.075 155.43 480.393 152.46 480.52C149.487 480.649 146.509 480.556 143.55 480.24L142.51 480.12C142.16 480.12 141.81 480.02 141.51 479.97L139.43 479.68L137.43 479.3L136.43 479.12L135.43 478.9C130.848 477.892 126.376 476.435 122.08 474.55C119.154 473.312 116.337 471.831 113.66 470.12C112.66 469.54 112.02 468.99 111.54 468.66L111 468.26L110.82 468.12L111.01 468.25L111.56 468.63C112.05 468.95 112.74 469.48 113.7 470.06C116.363 471.753 119.159 473.228 122.06 474.47C126.358 476.326 130.826 477.762 135.4 478.76L136.4 478.98L137.4 479.17L139.4 479.54L141.47 479.83L142.47 479.97L143.54 480.07C146.489 480.381 149.457 480.474 152.42 480.35C155.384 480.223 158.337 479.905 161.26 479.4C163.984 478.942 166.681 478.338 169.34 477.59C169.98 477.43 170.6 477.22 171.21 477.04C171.82 476.86 172.44 476.67 173.03 476.46L174.77 475.86L176.45 475.22L177.26 474.91L178.06 474.58L179.59 473.94C180.59 473.49 181.54 473.06 182.44 472.62C185.279 471.245 188.031 469.695 190.68 467.98C190.92 467.84 191.14 467.69 191.35 467.56L191.93 467.17L192.83 466.56L193.38 466.19C193.451 466.136 193.529 466.089 193.61 466.05Z" fill="#263238"/>
<path d="M177.63 470.02L185.08 489.08H190.18L191.29 487.43L192.6 489.08H194.4L195.07 458.87L177.63 470.02Z" fill="#455A64"/>
<path d="M130.79 472.7L137.09 489.08H142.88L144.06 487.19L145.21 489.12H146.64C146.64 489.12 147.27 470.64 146.64 470.12C146.01 469.6 130.79 472.7 130.79 472.7Z" fill="#455A64"/>
<path d="M204.41 436.12V436.23V436.55C204.41 436.84 204.35 437.25 204.3 437.77C204.3 438.04 204.24 438.34 204.21 438.66C204.18 438.98 204.1 439.33 204.04 439.66C203.91 440.41 203.8 441.27 203.56 442.19C203.45 442.65 203.34 443.14 203.22 443.65C203.1 444.16 202.92 444.65 202.76 445.21C202.47 446.29 202.03 447.41 201.59 448.6C200.566 451.137 199.328 453.582 197.89 455.91C196.415 458.221 194.742 460.399 192.89 462.42C192.01 463.33 191.19 464.21 190.34 464.94C189.92 465.32 189.53 465.7 189.13 466.03L187.96 466.97C187.23 467.58 186.5 468.05 185.89 468.49L185.02 469.1L184.26 469.56L183.21 470.19L182.93 470.35H182.83L182.92 470.28L183.19 470.11L184.19 469.44L184.94 468.97C185.21 468.79 185.49 468.57 185.8 468.36C186.4 467.91 187.12 467.43 187.8 466.81L188.96 465.86C189.36 465.53 189.74 465.15 190.16 464.77C191 464.04 191.81 463.16 192.69 462.25C196.39 458.223 199.328 453.557 201.36 448.48C201.8 447.3 202.24 446.19 202.54 445.11C202.7 444.57 202.88 444.06 203 443.56C203.12 443.06 203.24 442.56 203.36 442.11C203.61 441.19 203.72 440.34 203.86 439.59C203.93 439.22 204 438.88 204.05 438.59C204.1 438.3 204.12 437.98 204.15 437.71C204.22 437.2 204.27 436.79 204.3 436.5C204.3 436.37 204.3 436.26 204.3 436.18C204.3 436.1 204.4 436.12 204.41 436.12Z" fill="#353131"/>
<g opacity="0.2">
<path opacity="0.2" d="M196.34 420C194.52 415.582 191.062 412.038 186.69 410.11C185.877 409.789 185 409.665 184.131 409.749C183.261 409.833 182.424 410.122 181.688 410.593C180.952 411.063 180.338 411.702 179.897 412.456C179.455 413.21 179.2 414.058 179.15 414.93V415.01C179.173 417.714 179.938 420.36 181.36 422.66C182.787 424.942 184.073 427.31 185.21 429.75C186.878 433.913 186.931 438.549 185.36 442.75C184.36 445.39 182.72 448.21 184.21 450.84C184.713 451.672 185.446 452.342 186.321 452.767C187.195 453.193 188.174 453.357 189.14 453.24C192.93 452.89 194.89 449.47 196.69 446.36C198.27 443.492 199.192 440.308 199.39 437.04C199.593 431.208 198.554 425.399 196.34 420Z" fill="#353131"/>
</g>
<path d="M110.74 429.58C110.742 430.109 110.587 430.626 110.294 431.067C110.001 431.508 109.585 431.851 109.096 432.055C108.608 432.258 108.07 432.312 107.551 432.209C107.033 432.106 106.556 431.852 106.182 431.478C105.808 431.104 105.553 430.627 105.451 430.108C105.348 429.59 105.402 429.052 105.605 428.564C105.808 428.075 106.152 427.658 106.593 427.366C107.033 427.073 107.551 426.918 108.08 426.92C108.785 426.923 109.46 427.204 109.958 427.702C110.456 428.2 110.737 428.875 110.74 429.58Z" fill="#263238"/>
<path d="M137.3 429.58C137.302 430.109 137.147 430.626 136.854 431.067C136.562 431.508 136.145 431.851 135.656 432.055C135.168 432.258 134.63 432.312 134.112 432.209C133.593 432.106 133.116 431.852 132.742 431.478C132.368 431.104 132.113 430.627 132.011 430.108C131.908 429.59 131.962 429.052 132.165 428.564C132.368 428.075 132.712 427.658 133.153 427.366C133.593 427.073 134.111 426.918 134.64 426.92C135.345 426.923 136.02 427.204 136.518 427.702C137.016 428.2 137.297 428.875 137.3 429.58Z" fill="#263238"/>
<path d="M195.51 407.27C195.51 407.27 195.44 407.21 195.32 407.07L194.83 406.47C194.61 406.21 194.35 405.89 194.03 405.53C193.71 405.17 193.37 404.75 192.95 404.31C192.53 403.87 192.1 403.38 191.6 402.88C191.1 402.38 190.6 401.88 189.99 401.29C188.82 400.2 187.49 399.05 186.04 397.92C184.59 396.79 183.13 395.81 181.78 394.92C181.1 394.5 180.46 394.1 179.84 393.76C179.22 393.42 178.64 393.09 178.11 392.81C177.58 392.53 177.11 392.29 176.65 392.08C176.19 391.87 175.85 391.69 175.54 391.55L174.84 391.22C174.68 391.14 174.59 391.1 174.6 391.09L174.85 391.18L175.57 391.48C175.89 391.61 176.27 391.77 176.7 391.98C177.13 392.19 177.63 392.41 178.17 392.69C178.71 392.97 179.3 393.27 179.92 393.62C180.54 393.97 181.19 394.36 181.92 394.77C183.27 395.62 184.73 396.61 186.2 397.77C187.67 398.93 188.98 400.06 190.15 401.16C190.72 401.72 191.27 402.24 191.75 402.77C192.23 403.3 192.75 403.77 193.1 404.22C193.45 404.67 193.85 405.09 194.16 405.46C194.47 405.83 194.72 406.16 194.92 406.46C195.12 406.76 195.28 406.92 195.39 407.08C195.5 407.24 195.51 407.27 195.51 407.27Z" fill="#353131"/>
<path d="M167.42 395.28L167.13 395.2L166.32 394.92C165.96 394.79 165.53 394.64 165.02 394.49C164.51 394.34 163.94 394.14 163.29 393.98L162.29 393.72C161.94 393.63 161.56 393.55 161.18 393.47C160.42 393.28 159.59 393.15 158.72 392.99C156.828 392.702 154.922 392.522 153.01 392.45C151.094 392.408 149.177 392.481 147.27 392.67C146.4 392.77 145.56 392.86 144.79 392.99C144.4 393.06 144.02 393.11 143.67 393.18L142.67 393.39C142.01 393.51 141.43 393.67 140.91 393.8C140.39 393.93 139.91 394.04 139.6 394.15L138.77 394.38L138.48 394.45C138.569 394.402 138.663 394.366 138.76 394.34L139.51 394.12C139.86 394 140.3 393.86 140.82 393.73C141.34 393.6 141.91 393.43 142.57 393.3L143.57 393.07L144.69 392.88C145.47 392.73 146.3 392.64 147.18 392.53C149.093 392.333 151.017 392.256 152.94 392.3C154.863 392.368 156.78 392.555 158.68 392.86C159.55 393.02 160.38 393.16 161.15 393.35L162.26 393.61L163.26 393.89C163.91 394.06 164.48 394.27 164.99 394.43C165.5 394.59 165.92 394.75 166.27 394.89L167.07 395.2L167.42 395.28Z" fill="#353131"/>
<path d="M194.64 463.71C194.677 463.636 194.72 463.566 194.77 463.5L195.2 462.9C195.59 462.38 196.2 461.61 196.87 460.61C198.879 457.773 200.63 454.761 202.1 451.61C204.244 446.93 205.573 441.918 206.03 436.79C206.551 430.505 205.656 424.183 203.41 418.29C201.167 412.395 197.693 407.047 193.22 402.6C189.574 398.969 185.458 395.844 180.98 393.31C177.965 391.587 174.822 390.096 171.58 388.85C170.43 388.4 169.58 388.1 168.91 387.85L168.21 387.62L167.98 387.53C168.063 387.515 168.147 387.515 168.23 387.53L168.94 387.71C169.57 387.89 170.49 388.16 171.65 388.58C174.935 389.755 178.116 391.204 181.16 392.91C185.701 395.414 189.874 398.533 193.56 402.18C198.113 406.686 201.637 412.124 203.89 418.12C206.171 424.084 207.067 430.489 206.51 436.85C206.036 442.023 204.658 447.073 202.44 451.77C200.938 454.937 199.133 457.951 197.05 460.77C196.31 461.77 195.71 462.5 195.3 463L194.82 463.57C194.71 463.66 194.65 463.72 194.64 463.71Z" fill="#263238"/>
</svg>
