<svg width="60" height="60" viewBox="0 0 60 60" fill="none" xmlns="http://www.w3.org/2000/svg">
<path d="M20.625 26.25C20.1277 26.25 19.6508 26.4475 19.2992 26.7992C18.9475 27.1508 18.75 27.6277 18.75 28.125C18.75 28.6223 18.9475 29.0992 19.2992 29.4508C19.6508 29.8025 20.1277 30 20.625 30H39.375C39.8723 30 40.3492 29.8025 40.7008 29.4508C41.0525 29.0992 41.25 28.6223 41.25 28.125C41.25 27.6277 41.0525 27.1508 40.7008 26.7992C40.3492 26.4475 39.8723 26.25 39.375 26.25H20.625ZM18.75 35.625C18.75 35.1277 18.9475 34.6508 19.2992 34.2992C19.6508 33.9475 20.1277 33.75 20.625 33.75H39.375C39.8723 33.75 40.3492 33.9475 40.7008 34.2992C41.0525 34.6508 41.25 35.1277 41.25 35.625C41.25 36.1223 41.0525 36.5992 40.7008 36.9508C40.3492 37.3025 39.8723 37.5 39.375 37.5H20.625C20.1277 37.5 19.6508 37.3025 19.2992 36.9508C18.9475 36.5992 18.75 36.1223 18.75 35.625ZM18.75 43.125C18.75 42.6277 18.9475 42.1508 19.2992 41.7992C19.6508 41.4475 20.1277 41.25 20.625 41.25H28.125C28.6223 41.25 29.0992 41.4475 29.4508 41.7992C29.8025 42.1508 30 42.6277 30 43.125C30 43.6223 29.8025 44.0992 29.4508 44.4508C29.0992 44.8025 28.6223 45 28.125 45H20.625C20.1277 45 19.6508 44.8025 19.2992 44.4508C18.9475 44.0992 18.75 43.6223 18.75 43.125Z" fill="#0D0D0D"/>
<path d="M35.625 0H15C13.0109 0 11.1032 0.790176 9.6967 2.1967C8.29018 3.60322 7.5 5.51088 7.5 7.5V52.5C7.5 54.4891 8.29018 56.3968 9.6967 57.8033C11.1032 59.2098 13.0109 60 15 60H45C46.9891 60 48.8968 59.2098 50.3033 57.8033C51.7098 56.3968 52.5 54.4891 52.5 52.5V16.875L35.625 0ZM35.625 3.75V11.25C35.625 12.7418 36.2176 14.1726 37.2725 15.2275C38.3274 16.2824 39.7582 16.875 41.25 16.875H48.75V52.5C48.75 53.4946 48.3549 54.4484 47.6516 55.1516C46.9484 55.8549 45.9946 56.25 45 56.25H15C14.0054 56.25 13.0516 55.8549 12.3483 55.1516C11.6451 54.4484 11.25 53.4946 11.25 52.5V7.5C11.25 6.50544 11.6451 5.55161 12.3483 4.84835C13.0516 4.14509 14.0054 3.75 15 3.75H35.625Z" fill="#0D0D0D"/>
<path d="M14.6053 18.5677C14.7951 20.7063 16.5463 22.224 19.2121 22.4203V23.9803H20.5502V22.4203C23.4624 22.1906 25.2687 20.5755 25.2687 18.1867C25.2687 16.1469 24.0538 14.9667 21.4764 14.3021L20.5502 14.0622V9.18465C21.9896 9.32577 22.9608 10.1006 23.2058 11.2578H25.0916C24.8787 9.20517 23.116 7.73241 20.5502 7.56948V6.01974H19.2121V7.60155C16.7246 7.89662 15.0171 9.48998 15.0171 11.6504C15.0171 13.5157 16.2563 14.8358 18.4309 15.3926L19.2134 15.6004V20.7718C17.7394 20.5537 16.7246 19.7454 16.4796 18.5677H14.6053ZM18.9556 13.6466C17.6175 13.3092 16.9029 12.5882 16.9029 11.5734C16.9029 10.3623 17.8061 9.46817 19.2121 9.22827V13.712L18.9556 13.6478V13.6466ZM20.9966 16.0481C22.6477 16.4625 23.3726 17.1501 23.3726 18.3176C23.3726 19.7249 22.3129 20.6627 20.5502 20.8051V15.9365L20.9966 16.0469V16.0481Z" fill="#0D0D0D"/>
</svg>
