<svg width="50" height="50" viewBox="0 0 50 50" fill="none" xmlns="http://www.w3.org/2000/svg">
<path fill-rule="evenodd" clip-rule="evenodd" d="M21.1751 4.85312C21.5455 4.66749 21.9746 4.63662 22.3678 4.7673C22.761 4.89799 23.0863 5.17953 23.2719 5.55L32.6469 24.3C32.7558 24.5173 32.8125 24.757 32.8125 25C32.8125 25.243 32.7558 25.4827 32.6469 25.7L23.2719 44.45C23.181 44.6351 23.0543 44.8003 22.8992 44.9362C22.7441 45.072 22.5636 45.1759 22.3681 45.2417C22.1727 45.3074 21.9662 45.3339 21.7605 45.3195C21.5548 45.3051 21.354 45.2501 21.1696 45.1577C20.9853 45.0653 20.821 44.9374 20.6863 44.7812C20.5517 44.6251 20.4492 44.4438 20.385 44.2479C20.3207 44.0519 20.2958 43.8452 20.3118 43.6396C20.3278 43.434 20.3844 43.2336 20.4782 43.05L29.5001 25L20.4782 6.95C20.2925 6.57952 20.2617 6.15048 20.3924 5.75724C20.523 5.364 20.8046 5.03879 21.1751 4.85312Z" fill="#0D0D0D"/>
</svg>
