<svg width="30" height="30" viewBox="0 0 30 30" fill="none" xmlns="http://www.w3.org/2000/svg">
<path d="M20.3512 15.2737C20.4385 15.3608 20.5078 15.4643 20.555 15.5782C20.6023 15.6921 20.6266 15.8142 20.6266 15.9375C20.6266 16.0608 20.6023 16.1829 20.555 16.2968C20.5078 16.4107 20.4385 16.5141 20.3512 16.6012L14.7262 22.2262C14.6391 22.3135 14.5357 22.3828 14.4218 22.4301C14.3079 22.4773 14.1858 22.5016 14.0625 22.5016C13.9391 22.5016 13.817 22.4773 13.7032 22.4301C13.5893 22.3828 13.4858 22.3135 13.3987 22.2262L10.5862 19.4137C10.499 19.3266 10.4299 19.2231 10.3827 19.1092C10.3356 18.9953 10.3113 18.8732 10.3113 18.75C10.3113 18.6267 10.3356 18.5046 10.3827 18.3907C10.4299 18.2769 10.499 18.1734 10.5862 18.0862C10.7623 17.9102 11.001 17.8113 11.25 17.8113C11.3732 17.8113 11.4953 17.8356 11.6092 17.8827C11.7231 17.9299 11.8265 17.9991 11.9137 18.0862L14.0625 20.2368L19.0237 15.2737C19.1108 15.1864 19.2143 15.1171 19.3282 15.0699C19.442 15.0226 19.5641 14.9983 19.6875 14.9983C19.8108 14.9983 19.9329 15.0226 20.0468 15.0699C20.1607 15.1171 20.2641 15.1864 20.3512 15.2737Z" fill="#0D0D0D"/>
<path d="M6.5625 0C6.81114 0 7.0496 0.0987721 7.22541 0.274587C7.40123 0.450403 7.5 0.68886 7.5 0.9375V1.875H22.5V0.9375C22.5 0.68886 22.5988 0.450403 22.7746 0.274587C22.9504 0.0987721 23.1889 0 23.4375 0C23.6861 0 23.9246 0.0987721 24.1004 0.274587C24.2762 0.450403 24.375 0.68886 24.375 0.9375V1.875H26.25C27.2446 1.875 28.1984 2.27009 28.9016 2.97335C29.6049 3.67661 30 4.63044 30 5.625V26.25C30 27.2446 29.6049 28.1984 28.9016 28.9016C28.1984 29.6049 27.2446 30 26.25 30H3.75C2.75544 30 1.80161 29.6049 1.09835 28.9016C0.395088 28.1984 0 27.2446 0 26.25V5.625C0 4.63044 0.395088 3.67661 1.09835 2.97335C1.80161 2.27009 2.75544 1.875 3.75 1.875H5.625V0.9375C5.625 0.68886 5.72377 0.450403 5.89959 0.274587C6.0754 0.0987721 6.31386 0 6.5625 0V0ZM3.75 3.75C3.25272 3.75 2.77581 3.94754 2.42417 4.29917C2.07254 4.65081 1.875 5.12772 1.875 5.625V26.25C1.875 26.7473 2.07254 27.2242 2.42417 27.5758C2.77581 27.9275 3.25272 28.125 3.75 28.125H26.25C26.7473 28.125 27.2242 27.9275 27.5758 27.5758C27.9275 27.2242 28.125 26.7473 28.125 26.25V5.625C28.125 5.12772 27.9275 4.65081 27.5758 4.29917C27.2242 3.94754 26.7473 3.75 26.25 3.75H3.75Z" fill="#0D0D0D"/>
<path d="M4.6875 7.5C4.6875 7.25136 4.78627 7.0129 4.96209 6.83709C5.1379 6.66127 5.37636 6.5625 5.625 6.5625H24.375C24.6236 6.5625 24.8621 6.66127 25.0379 6.83709C25.2137 7.0129 25.3125 7.25136 25.3125 7.5V9.375C25.3125 9.62364 25.2137 9.8621 25.0379 10.0379C24.8621 10.2137 24.6236 10.3125 24.375 10.3125H5.625C5.37636 10.3125 5.1379 10.2137 4.96209 10.0379C4.78627 9.8621 4.6875 9.62364 4.6875 9.375V7.5Z" fill="#0D0D0D"/>
</svg>
