<svg width="60" height="94" viewBox="0 0 60 94" fill="none" xmlns="http://www.w3.org/2000/svg">
<path d="M30 37.5C31.9891 37.5 33.8968 36.7098 35.3033 35.3033C36.7098 33.8968 37.5 31.9891 37.5 30C37.5 28.0109 36.7098 26.1032 35.3033 24.6967C33.8968 23.2902 31.9891 22.5 30 22.5C28.0109 22.5 26.1032 23.2902 24.6967 24.6967C23.2902 26.1032 22.5 28.0109 22.5 30C22.5 31.9891 23.2902 33.8968 24.6967 35.3033C26.1032 36.7098 28.0109 37.5 30 37.5Z" fill="#0D0D0D"/>
<path d="M0 15C0 14.0054 0.395088 13.0516 1.09835 12.3483C1.80161 11.6451 2.75544 11.25 3.75 11.25H56.25C57.2446 11.25 58.1984 11.6451 58.9016 12.3483C59.6049 13.0516 60 14.0054 60 15V45C60 45.9946 59.6049 46.9484 58.9016 47.6516C58.1984 48.3549 57.2446 48.75 56.25 48.75H3.75C2.75544 48.75 1.80161 48.3549 1.09835 47.6516C0.395088 46.9484 0 45.9946 0 45V15ZM11.25 15C11.25 16.9891 10.4598 18.8968 9.0533 20.3033C7.64678 21.7098 5.73912 22.5 3.75 22.5V37.5C5.73912 37.5 7.64678 38.2902 9.0533 39.6967C10.4598 41.1032 11.25 43.0109 11.25 45H48.75C48.75 43.0109 49.5402 41.1032 50.9467 39.6967C52.3532 38.2902 54.2609 37.5 56.25 37.5V22.5C54.2609 22.5 52.3532 21.7098 50.9467 20.3033C49.5402 18.8968 48.75 16.9891 48.75 15H11.25Z" fill="#0D0D0D"/>
<path fill-rule="evenodd" clip-rule="evenodd" d="M3.75 46.2829C3.75 45.7856 3.94754 45.3087 4.29917 44.9571C4.65081 44.6054 5.12772 44.4079 5.625 44.4079H54.375C54.8723 44.4079 55.3492 44.6054 55.7008 44.9571C56.0525 45.3087 56.25 45.7856 56.25 46.2829C56.25 46.7802 56.0525 47.2571 55.7008 47.6087C55.3492 47.9604 54.8723 48.1579 54.375 48.1579H5.625C5.12772 48.1579 4.65081 47.9604 4.29917 47.6087C3.94754 47.2571 3.75 46.7802 3.75 46.2829ZM30 55.6579C30.4973 55.6579 30.9742 55.8554 31.3258 56.2071C31.6775 56.5587 31.875 57.0356 31.875 57.5329V79.2566L39.9225 71.2054C40.2746 70.8533 40.7521 70.6555 41.25 70.6555C41.7479 70.6555 42.2254 70.8533 42.5775 71.2054C42.9296 71.5575 43.1274 72.035 43.1274 72.5329C43.1274 73.0308 42.9296 73.5083 42.5775 73.8604L31.3275 85.1104C31.1533 85.285 30.9464 85.4235 30.7186 85.5181C30.4908 85.6126 30.2466 85.6612 30 85.6612C29.7534 85.6612 29.5092 85.6126 29.2814 85.5181C29.0536 85.4235 28.8467 85.285 28.6725 85.1104L17.4225 73.8604C17.0704 73.5083 16.8726 73.0308 16.8726 72.5329C16.8726 72.035 17.0704 71.5575 17.4225 71.2054C17.7746 70.8533 18.2521 70.6555 18.75 70.6555C19.2479 70.6555 19.7254 70.8533 20.0775 71.2054L28.125 79.2566V57.5329C28.125 57.0356 28.3225 56.5587 28.6742 56.2071C29.0258 55.8554 29.5027 55.6579 30 55.6579Z" fill="#0D0D0D"/>
</svg>
