<svg width="32" height="33" viewBox="0 0 32 33" fill="none" xmlns="http://www.w3.org/2000/svg">
<path d="M26 10.6C26 8.05392 24.9464 5.61212 23.0711 3.81177C21.1957 2.01143 18.6522 1 16 1C13.3478 1 10.8043 2.01143 8.92893 3.81177C7.05357 5.61212 6 8.05392 6 10.6C6 21.8 1 25 1 25H31C31 25 26 21.8 26 10.6Z" stroke="black" stroke-width="2" stroke-linecap="round" stroke-linejoin="round"/>
<path d="M19 31C18.6951 31.3042 18.2575 31.5566 17.731 31.7321C17.2045 31.9076 16.6076 32 16 32C15.3924 32 14.7955 31.9076 14.269 31.7321C13.7425 31.5566 13.3049 31.3042 13 31" stroke="black" stroke-width="2" stroke-linecap="round" stroke-linejoin="round"/>
</svg>
