<svg width="32" height="32" viewBox="0 0 32 32" fill="none" xmlns="http://www.w3.org/2000/svg">
<path d="M16 19.75C18.0711 19.75 19.75 18.0711 19.75 16C19.75 13.9289 18.0711 12.25 16 12.25C13.9289 12.25 12.25 13.9289 12.25 16C12.25 18.0711 13.9289 19.75 16 19.75Z" stroke="black" stroke-width="2" stroke-linecap="round" stroke-linejoin="round"/>
<path d="M26.0909 20.0909C25.9094 20.5022 25.8552 20.9584 25.9354 21.4008C26.0157 21.8432 26.2265 22.2513 26.5409 22.5727L26.6227 22.6545C26.8763 22.9078 27.0775 23.2086 27.2147 23.5397C27.352 23.8708 27.4226 24.2257 27.4226 24.5841C27.4226 24.9425 27.352 25.2974 27.2147 25.6285C27.0775 25.9596 26.8763 26.2603 26.6227 26.5136C26.3694 26.7672 26.0687 26.9684 25.7376 27.1056C25.4065 27.2429 25.0516 27.3135 24.6932 27.3135C24.3348 27.3135 23.9799 27.2429 23.6488 27.1056C23.3177 26.9684 23.0169 26.7672 22.7636 26.5136L22.6818 26.4318C22.3604 26.1174 21.9523 25.9066 21.5099 25.8264C21.0675 25.7462 20.6113 25.8003 20.2 25.9818C19.7967 26.1547 19.4527 26.4417 19.2104 26.8075C18.9681 27.1734 18.8381 27.6021 18.8364 28.0409V28.2727C18.8364 28.996 18.549 29.6897 18.0376 30.2012C17.5261 30.7127 16.8324 31 16.1091 31C15.3858 31 14.6921 30.7127 14.1806 30.2012C13.6692 29.6897 13.3818 28.996 13.3818 28.2727V28.15C13.3713 27.6986 13.2252 27.2609 12.9625 26.8937C12.6999 26.5265 12.3328 26.2468 11.9091 26.0909C11.4978 25.9094 11.0416 25.8552 10.5992 25.9354C10.1568 26.0157 9.74865 26.2265 9.42727 26.5409L9.34545 26.6227C9.09216 26.8763 8.79138 27.0775 8.46029 27.2147C8.12921 27.352 7.77431 27.4226 7.41591 27.4226C7.0575 27.4226 6.70261 27.352 6.37153 27.2147C6.04044 27.0775 5.73965 26.8763 5.48636 26.6227C5.23279 26.3694 5.03163 26.0687 4.89438 25.7376C4.75713 25.4065 4.68649 25.0516 4.68649 24.6932C4.68649 24.3348 4.75713 23.9799 4.89438 23.6488C5.03163 23.3177 5.23279 23.0169 5.48636 22.7636L5.56818 22.6818C5.88255 22.3604 6.09343 21.9523 6.17364 21.5099C6.25385 21.0675 6.1997 20.6113 6.01818 20.2C5.84532 19.7967 5.5583 19.4527 5.19245 19.2104C4.8266 18.9681 4.39789 18.8381 3.95909 18.8364H3.72727C3.00396 18.8364 2.31026 18.549 1.7988 18.0376C1.28734 17.5261 1 16.8324 1 16.1091C1 15.3858 1.28734 14.6921 1.7988 14.1806C2.31026 13.6692 3.00396 13.3818 3.72727 13.3818H3.85C4.30136 13.3713 4.7391 13.2252 5.10632 12.9625C5.47354 12.6999 5.75325 12.3328 5.90909 11.9091C6.09061 11.4978 6.14476 11.0416 6.06455 10.5992C5.98434 10.1568 5.77346 9.74865 5.45909 9.42727L5.37727 9.34545C5.1237 9.09216 4.92254 8.79138 4.78529 8.46029C4.64804 8.12921 4.5774 7.77431 4.5774 7.41591C4.5774 7.0575 4.64804 6.70261 4.78529 6.37153C4.92254 6.04044 5.1237 5.73965 5.37727 5.48636C5.63056 5.23279 5.93135 5.03163 6.26244 4.89438C6.59352 4.75713 6.94841 4.68649 7.30682 4.68649C7.66522 4.68649 8.02012 4.75713 8.3512 4.89438C8.68229 5.03163 8.98307 5.23279 9.23636 5.48636L9.31818 5.56818C9.63956 5.88255 10.0477 6.09343 10.4901 6.17364C10.9325 6.25385 11.3887 6.1997 11.8 6.01818H11.9091C12.3124 5.84532 12.6564 5.5583 12.8987 5.19245C13.141 4.8266 13.271 4.39789 13.2727 3.95909V3.72727C13.2727 3.00396 13.5601 2.31026 14.0715 1.7988C14.583 1.28734 15.2767 1 16 1C16.7233 1 17.417 1.28734 17.9285 1.7988C18.4399 2.31026 18.7273 3.00396 18.7273 3.72727V3.85C18.729 4.2888 18.859 4.71751 19.1013 5.08336C19.3436 5.44921 19.6876 5.73623 20.0909 5.90909C20.5022 6.09061 20.9584 6.14476 21.4008 6.06455C21.8432 5.98434 22.2513 5.77346 22.5727 5.45909L22.6545 5.37727C22.9078 5.1237 23.2086 4.92254 23.5397 4.78529C23.8708 4.64804 24.2257 4.5774 24.5841 4.5774C24.9425 4.5774 25.2974 4.64804 25.6285 4.78529C25.9596 4.92254 26.2603 5.1237 26.5136 5.37727C26.7672 5.63056 26.9684 5.93135 27.1056 6.26244C27.2429 6.59352 27.3135 6.94841 27.3135 7.30682C27.3135 7.66522 27.2429 8.02012 27.1056 8.3512C26.9684 8.68229 26.7672 8.98307 26.5136 9.23636L26.4318 9.31818C26.1174 9.63956 25.9066 10.0477 25.8264 10.4901C25.7462 10.9325 25.8003 11.3887 25.9818 11.8V11.9091C26.1547 12.3124 26.4417 12.6564 26.8075 12.8987C27.1734 13.141 27.6021 13.271 28.0409 13.2727H28.2727C28.996 13.2727 29.6897 13.5601 30.2012 14.0715C30.7127 14.583 31 15.2767 31 16C31 16.7233 30.7127 17.417 30.2012 17.9285C29.6897 18.4399 28.996 18.7273 28.2727 18.7273H28.15C27.7112 18.729 27.2825 18.859 26.9166 19.1013C26.5508 19.3436 26.2638 19.6876 26.0909 20.0909V20.0909Z" stroke="black" stroke-width="2" stroke-linecap="round" stroke-linejoin="round"/>
</svg>
