<svg width="60" height="60" viewBox="0 0 60 60" fill="none" xmlns="http://www.w3.org/2000/svg">
<g clip-path="url(#clip0_417_9)">
<path d="M18.75 23.4375C18.75 24.1835 18.4537 24.8988 17.9262 25.4263C17.3988 25.9537 16.6834 26.25 15.9375 26.25C15.1916 26.25 14.4762 25.9537 13.9488 25.4263C13.4213 24.8988 13.125 24.1835 13.125 23.4375C13.125 22.6916 13.4213 21.9763 13.9488 21.4488C14.4762 20.9214 15.1916 20.625 15.9375 20.625C16.6834 20.625 17.3988 20.9214 17.9262 21.4488C18.4537 21.9763 18.75 22.6916 18.75 23.4375ZM23.0175 17.8275C25.2443 17.1919 27.5492 16.8713 29.865 16.875C32.3625 16.875 34.7513 17.2388 36.9638 17.8988C37.4366 18.0292 37.9417 17.9692 38.3707 17.7315C38.7998 17.4939 39.1187 17.0976 39.259 16.6277C39.3993 16.1577 39.3498 15.6514 39.1213 15.2175C38.8927 14.7835 38.5032 14.4564 38.0362 14.3063C35.3842 13.5181 32.6316 13.1202 29.865 13.125C27.1125 13.125 24.4613 13.5113 21.9825 14.22C21.5041 14.3573 21.0998 14.679 20.8586 15.1143C20.6174 15.5496 20.559 16.0629 20.6962 16.5413C20.8335 17.0197 21.1552 17.4239 21.5905 17.6652C22.0258 17.9064 22.5391 17.9648 23.0175 17.8275Z" fill="#0D0D0D"/>
<path fill-rule="evenodd" clip-rule="evenodd" d="M29.865 5.72629C18.7012 5.72629 8.97374 12.1163 6.16499 21.195H4.10249C3.55577 21.1956 3.0158 21.3158 2.52041 21.547C2.02501 21.7783 1.58617 22.115 1.23463 22.5338C0.883085 22.9525 0.627347 23.443 0.485329 23.9709C0.343312 24.4989 0.31845 25.0515 0.412485 25.59L1.36498 31.065C1.59197 32.3703 2.27239 33.5535 3.28633 34.4063C4.30026 35.259 5.58264 35.7264 6.90749 35.7263H7.89374C9.01874 37.65 10.4737 39.3938 12.1875 40.9088L9.45374 50.1975C9.37153 50.4772 9.35567 50.7722 9.40741 51.0591C9.45915 51.346 9.57707 51.6168 9.75179 51.8502C9.92653 52.0835 10.1533 52.2729 10.414 52.4033C10.6747 52.5337 10.9622 52.6015 11.2537 52.6013H18.7537C19.1406 52.6013 19.518 52.4817 19.8343 52.2588C20.1505 52.0359 20.39 51.7207 20.52 51.3563L22.3275 46.29C24.7087 46.9388 27.24 47.2913 29.8687 47.2913C32.52 47.2913 35.0737 46.935 37.4737 46.2713L39.51 51.4163C39.6483 51.7659 39.8886 52.0658 40.1995 52.2771C40.5105 52.4884 40.8778 52.6014 41.2537 52.6013H48.7537C49.0463 52.601 49.3348 52.5322 49.596 52.4005C49.8572 52.2688 50.084 52.0777 50.2582 51.8427C50.4324 51.6076 50.5492 51.335 50.5992 51.0468C50.6492 50.7585 50.6311 50.4625 50.5462 50.1825L47.6925 40.785C51.7875 37.1063 54.375 32.0963 54.375 26.5088C54.375 25.965 54.3487 25.4213 54.3 24.8925C55.2787 24.48 56.205 23.895 56.9437 23.2275C58.125 24.375 60 24.375 60 21.6638C60 22.5 58.125 22.5 58.2712 21.5663C58.4288 21.2653 58.5424 20.9432 58.6087 20.61C58.6969 20.1757 58.6737 19.7261 58.5413 19.3032C58.4088 18.8802 58.1714 18.4977 57.8512 18.1913C57.5135 17.8432 57.0692 17.618 56.5888 17.5514C56.1085 17.4848 55.6196 17.5807 55.2 17.8238C54.8141 18.037 54.4851 18.3397 54.2404 18.7064C53.9957 19.0731 53.8425 19.4931 53.7937 19.9313C53.7037 20.8425 54.1012 21.7313 54.9937 22.3838C54.684 22.5979 54.3595 22.7896 54.0225 22.9575C52.02 12.9675 41.7075 5.72629 29.865 5.72629ZM9.43499 23.475C11.1412 15.7275 19.4362 9.47629 29.865 9.47629C41.6625 9.47629 50.625 17.4038 50.625 26.5088C50.625 31.2113 48.285 35.5463 44.3625 38.6888C44.071 38.9233 43.8563 39.2397 43.746 39.5972C43.6357 39.9547 43.6349 40.3371 43.7437 40.695L46.2187 48.8513H42.525L40.3125 43.275C40.1343 42.8257 39.7895 42.4625 39.35 42.2613C38.9105 42.06 38.4103 42.0363 37.9537 42.195C35.475 43.0575 32.7412 43.5413 29.865 43.5413C27.1124 43.5484 24.3781 43.0933 21.7762 42.195C21.3092 42.0327 20.7969 42.0614 20.351 42.2749C19.905 42.4884 19.5614 42.8694 19.395 43.335L17.4262 48.8513H13.755L16.1287 40.7888C16.2346 40.4295 16.2305 40.0467 16.1169 39.6898C16.0033 39.3329 15.7854 39.0182 15.4912 38.7863C13.4849 37.2334 11.8416 35.2612 10.6762 33.0075C10.5201 32.6978 10.2812 32.4374 9.98589 32.2553C9.69061 32.0732 9.35063 31.9766 9.00374 31.9763H6.90374C6.46273 31.9758 6.03601 31.8199 5.69858 31.5359C5.36114 31.252 5.13459 30.8582 5.05874 30.4238L4.10624 24.9488H7.60499C8.03229 24.9484 8.44666 24.8021 8.77946 24.5341C9.11227 24.2661 9.34354 23.8924 9.43499 23.475ZM56.7637 20.2613C56.697 20.5464 56.5718 20.8145 56.3962 21.0488C56.3401 21.0195 56.2851 20.9883 56.2312 20.955C55.6837 20.6175 55.6425 20.2988 55.6612 20.1188C55.6797 19.9842 55.7289 19.8557 55.805 19.7432C55.881 19.6307 55.982 19.5373 56.1 19.47C56.2837 19.3688 56.4 19.3913 56.5237 19.515C56.628 19.6057 56.7055 19.7232 56.7478 19.8547C56.7901 19.9862 56.7956 20.1268 56.7637 20.2613Z" fill="#0D0D0D"/>
</g>
<defs>
<clipPath id="clip0_417_9">
<rect width="60" height="60" fill="white"/>
</clipPath>
</defs>
</svg>
