<svg width="60" height="60" viewBox="0 0 60 60" fill="none" xmlns="http://www.w3.org/2000/svg">
<path d="M28.4067 34.2778C29.0395 33.645 30.1293 33.645 30.7621 34.2778L39.7856 43.3012C41.4496 44.9653 43.6645 45.8793 46.0082 45.8793H47.7778L36.3989 57.2583C32.8481 60.7153 27.0825 60.7153 23.5317 57.2583L12.1059 45.8442H13.1957C15.5395 45.8442 17.7543 44.9301 19.4184 43.2661L28.4067 34.2778ZM30.7621 25.6528C30.0121 26.2973 29.0512 26.309 28.4067 25.6528L19.4184 16.6645C17.7543 14.895 15.5395 14.0864 13.1957 14.0864H12.1059L23.52 2.66762C27.0825 -0.888555 32.8481 -0.888555 36.3989 2.66762L47.7895 14.0512H46.0082C43.6645 14.0512 41.4496 14.9653 39.7856 16.6293L30.7621 25.6528ZM13.1957 16.7231C14.8129 16.7231 16.3012 17.3793 17.5434 18.5278L26.5317 27.5161C27.3754 28.2543 28.477 28.7817 29.5903 28.7817C30.6918 28.7817 31.7934 28.2543 32.6371 27.5161L41.6606 18.4926C42.809 17.3559 44.3911 16.6997 46.0082 16.6997H50.4262L57.2582 23.5317C60.809 27.0825 60.809 32.8481 57.2582 36.3989L50.4262 43.2309H46.0082C44.3911 43.2309 42.809 42.5747 41.6606 41.4262L32.6371 32.4028C31.0082 30.7739 28.1606 30.7739 26.5317 32.4145L17.5434 41.3911C16.3012 42.5395 14.8129 43.1958 13.1957 43.1958H9.46684L2.66762 36.3989C-0.888555 32.8481 -0.888555 27.0825 2.66762 23.5317L9.46684 16.7231H13.1957Z" fill="black"/>
</svg>
