<svg width="382" height="80" viewBox="0 0 382 80" fill="none" xmlns="http://www.w3.org/2000/svg">
<path d="M3.37653 57.5485C2.22894 56.1361 1.65515 54.8782 1.65515 53.7747C1.65515 52.6272 2.60412 51.1265 4.50205 49.2727C5.6055 48.2134 6.77515 47.6837 8.01101 47.6837C9.24688 47.6837 10.9683 48.7872 13.1752 50.9941C13.7931 51.7444 14.6758 52.4727 15.8234 53.1789C16.971 53.841 18.0303 54.172 19.0014 54.172C23.1062 54.172 25.1586 52.4947 25.1586 49.1403C25.1586 48.1251 24.5848 47.2865 23.4372 46.6244C22.3338 45.9182 20.9434 45.4106 19.2662 45.1016C17.5889 44.7927 15.7793 44.3072 13.8372 43.6451C11.8952 42.9389 10.0855 42.1223 8.40826 41.1954C6.73101 40.2685 5.3186 38.812 4.17101 36.8258C3.06757 34.7954 2.51584 32.3678 2.51584 29.543C2.51584 25.6589 3.95032 22.2823 6.81929 19.4134C9.73239 16.5003 13.6827 15.0437 18.6703 15.0437C21.3186 15.0437 23.7241 15.3968 25.8869 16.103C28.0938 16.7651 29.6165 17.4492 30.4552 18.1554L32.1103 19.4134C33.4786 20.6934 34.1627 21.7747 34.1627 22.6575C34.1627 23.5403 33.6331 24.7541 32.5738 26.2989C31.0731 28.5058 29.5283 29.6092 27.9393 29.6092C27.0124 29.6092 25.8648 29.1678 24.4965 28.2851C24.3641 28.1968 24.0993 27.9761 23.702 27.623C23.3489 27.2699 23.0179 26.983 22.7089 26.7623C21.782 26.1885 20.5903 25.9016 19.1338 25.9016C17.7214 25.9016 16.5296 26.2547 15.5586 26.9609C14.6317 27.623 14.1683 28.572 14.1683 29.8078C14.1683 30.9996 14.72 31.9706 15.8234 32.7209C16.971 33.4713 18.3834 33.9789 20.0607 34.2437C21.7379 34.5085 23.5696 34.9278 25.5558 35.5016C27.5421 36.0313 29.3738 36.6934 31.051 37.4878C32.7283 38.2823 34.1186 39.6727 35.2221 41.6589C36.3696 43.601 36.9434 46.0065 36.9434 48.8754C36.9434 51.7444 36.3696 54.2823 35.2221 56.4892C34.0745 58.652 32.5738 60.3292 30.72 61.521C27.1448 63.8603 23.3269 65.0299 19.2662 65.0299C17.1917 65.0299 15.2276 64.7872 13.3738 64.3016C11.52 63.772 10.0193 63.132 8.8717 62.3816C6.53239 60.9692 4.89929 59.601 3.97239 58.2768L3.37653 57.5485ZM74.8804 42.7844C74.8804 45.4768 74.1963 47.4851 72.828 48.8092C71.5039 50.0892 70.0253 50.7292 68.3922 50.7292H52.7011C52.7011 51.9651 53.4294 53.0023 54.886 53.841C56.3425 54.6796 57.7991 55.0989 59.2556 55.0989C61.8156 55.0989 63.8239 54.8341 65.2804 54.3044L66.0087 54.0396C67.068 53.5541 67.9508 53.3113 68.657 53.3113C70.0694 53.3113 71.2832 54.3044 72.2984 56.2906C72.8722 57.4823 73.1591 58.4975 73.1591 59.3361C73.1591 63.2644 68.4584 65.2285 59.057 65.2285C55.7908 65.2285 52.8777 64.6768 50.3177 63.5734C47.8018 62.4258 45.8377 60.9251 44.4253 59.0713C41.6446 55.4961 40.2543 51.5016 40.2543 47.0878C40.2543 41.5265 42.0419 37.0906 45.617 33.7803C49.2363 30.4258 53.7384 28.7485 59.1232 28.7485C65.2584 28.7485 69.7604 30.9113 72.6294 35.2368C74.1301 37.532 74.8804 40.0478 74.8804 42.7844ZM60.9108 44.7044C62.588 44.7044 63.4266 43.9982 63.4266 42.5858C63.4266 41.5706 63.0294 40.7541 62.2349 40.1361C61.4846 39.5182 60.3811 39.2092 58.9246 39.2092C57.5122 39.2092 56.0998 39.8051 54.6873 40.9968C53.2749 42.1444 52.5687 43.3803 52.5687 44.7044H60.9108ZM109.523 51.6561L110.714 50.7954C112.215 49.9127 113.274 49.4713 113.892 49.4713C115.261 49.4713 116.739 50.7072 118.328 53.1789C119.299 54.7237 119.785 55.9596 119.785 56.8865C119.785 57.8134 119.476 58.5858 118.858 59.2037C118.284 59.8216 117.6 60.3734 116.806 60.8589C116.011 61.3444 115.239 61.8079 114.488 62.2492C113.782 62.6906 112.303 63.2644 110.052 63.9706C107.801 64.6768 105.617 65.0299 103.498 65.0299C101.423 65.0299 99.3048 64.7651 97.142 64.2354C95.0234 63.6616 92.8165 62.7347 90.5214 61.4547C88.2703 60.1306 86.24 58.5416 84.4303 56.6878C82.6207 54.7899 81.12 52.3844 79.9283 49.4713C78.7807 46.5141 78.2069 43.3141 78.2069 39.8713C78.2069 36.4285 78.7807 33.3168 79.9283 30.5361C81.0758 27.7113 82.5324 25.3941 84.2979 23.5844C86.1076 21.7306 88.16 20.1858 90.4552 18.9499C94.7807 16.5665 99.1283 15.3747 103.498 15.3747C105.572 15.3747 107.669 15.7058 109.788 16.3678C111.95 16.9858 113.583 17.6258 114.687 18.2878L116.276 19.2147C117.07 19.7003 117.688 20.0975 118.13 20.4065C119.277 21.3334 119.851 22.3927 119.851 23.5844C119.851 24.732 119.388 25.9458 118.461 27.2258C116.739 29.6092 115.194 30.8009 113.826 30.8009C113.032 30.8009 111.906 30.3154 110.45 29.3444C108.596 27.8437 106.124 27.0934 103.034 27.0934C100.166 27.0934 97.3407 28.0865 94.56 30.0727C93.2358 31.0437 92.1324 32.412 91.2496 34.1775C90.3669 35.943 89.9255 37.9513 89.9255 40.2023C89.9255 42.4092 90.3669 44.3954 91.2496 46.161C92.1324 47.9265 93.2579 49.3168 94.6262 50.332C97.3186 52.2741 100.121 53.2451 103.034 53.2451C104.403 53.2451 105.683 53.0685 106.874 52.7154C108.11 52.3623 108.993 52.0092 109.523 51.6561ZM123.142 46.9554C123.142 41.6589 124.996 37.2892 128.703 33.8465C132.411 30.4037 136.648 28.6823 141.415 28.6823C146.182 28.6823 150.397 30.4037 154.061 33.8465C157.724 37.2451 159.556 41.5927 159.556 46.8892C159.556 50.5527 158.607 53.8189 156.709 56.6878C154.811 59.5127 152.494 61.6092 149.757 62.9775C147.065 64.3016 144.262 64.9637 141.349 64.9637C138.436 64.9637 135.611 64.2575 132.874 62.8451C130.138 61.3885 127.821 59.2699 125.923 56.4892C124.069 53.6644 123.142 50.4865 123.142 46.9554ZM136.979 51.7223C138.392 52.7816 139.826 53.3113 141.283 53.3113C142.739 53.3113 144.196 52.7596 145.652 51.6561C147.109 50.5527 147.837 48.9196 147.837 46.7568C147.837 44.5941 147.153 42.983 145.785 41.9237C144.417 40.8644 142.938 40.3347 141.349 40.3347C139.76 40.3347 138.281 40.8865 136.913 41.9899C135.545 43.0934 134.861 44.7265 134.861 46.8892C134.861 49.0078 135.567 50.6189 136.979 51.7223ZM183.232 29.4768C187.646 29.4768 191.309 31.1761 194.223 34.5747C197.18 37.9292 198.658 42.0341 198.658 46.8892V58.5416C198.658 59.5568 198.614 60.3292 198.526 60.8589C198.482 61.3444 198.305 61.8961 197.996 62.5141C197.378 63.7058 195.657 64.3016 192.832 64.3016C189.698 64.3016 187.889 63.4851 187.403 61.852C187.138 61.1016 187.006 59.9761 187.006 58.4754V46.823C187.006 45.0134 186.476 43.601 185.417 42.5858C184.402 41.5706 183.011 41.063 181.246 41.063C179.525 41.063 178.112 41.5927 177.009 42.652C175.949 43.7113 175.42 45.1016 175.42 46.823V58.5416C175.42 59.5568 175.376 60.3292 175.287 60.8589C175.243 61.3444 175.045 61.8961 174.691 62.5141C174.118 63.7058 172.418 64.3016 169.594 64.3016C166.813 64.3016 165.114 63.7058 164.496 62.5141C164.187 61.852 163.988 61.2782 163.9 60.7927C163.856 60.263 163.834 59.4906 163.834 58.4754V35.0382C163.834 34.0672 163.856 33.3389 163.9 32.8534C163.988 32.3237 164.209 31.7499 164.562 31.132C165.18 30.0285 166.879 29.4768 169.66 29.4768C172.352 29.4768 174.007 29.9844 174.625 30.9996C175.067 31.7499 175.287 32.6547 175.287 33.7141C175.464 33.4051 175.861 32.9637 176.479 32.3899C177.097 31.8161 177.693 31.3527 178.267 30.9996C179.767 29.9844 181.423 29.4768 183.232 29.4768ZM223.597 41.1954L219.294 40.9306V50.0672C219.294 51.2589 219.47 52.1196 219.823 52.6492C220.221 53.1789 220.927 53.4437 221.942 53.4437C223.001 53.4437 223.796 53.4878 224.326 53.5761C224.899 53.6203 225.495 53.8189 226.113 54.172C227.128 54.7458 227.636 56.2244 227.636 58.6079C227.636 61.3885 227.018 63.0879 225.782 63.7058C225.12 64.0147 224.524 64.2134 223.994 64.3016C223.509 64.3458 222.781 64.3679 221.81 64.3679C217.219 64.3679 213.732 63.3306 211.349 61.2561C208.966 59.1816 207.774 55.6727 207.774 50.7292V40.9306C206.935 41.063 206.03 41.1292 205.059 41.1292C204.088 41.1292 203.272 40.7541 202.61 40.0037C201.992 39.2534 201.683 37.9734 201.683 36.1637C201.683 34.3541 201.793 33.052 202.014 32.2575C202.234 31.4189 202.543 30.823 202.941 30.4699C203.647 29.8961 204.53 29.6092 205.589 29.6092L207.774 29.874V23.0547C207.774 22.0396 207.796 21.2892 207.84 20.8037C207.928 20.3182 208.149 19.7885 208.502 19.2147C209.076 18.1113 210.775 17.5596 213.6 17.5596C216.601 17.5596 218.389 18.3761 218.963 20.0092C219.183 20.7154 219.294 21.8409 219.294 23.3858V29.874C221.236 29.6975 222.692 29.6092 223.663 29.6092C224.679 29.6092 225.429 29.6534 225.914 29.7416C226.444 29.7858 227.04 29.9844 227.702 30.3375C228.85 30.9113 229.423 32.6106 229.423 35.4354C229.423 38.2161 228.828 39.9154 227.636 40.5334C226.974 40.8423 226.378 41.041 225.848 41.1292C225.363 41.1734 224.612 41.1954 223.597 41.1954ZM256.782 29.874C257.62 30.1389 258.304 30.6023 258.834 31.2644C259.408 31.8823 259.695 32.8975 259.695 34.3099C259.695 35.7223 259.275 37.2672 258.437 38.9444C257.598 40.6216 256.384 41.4603 254.795 41.4603C254.001 41.4603 253.229 41.2837 252.478 40.9306C251.772 40.5775 250.823 40.401 249.631 40.401C248.44 40.401 247.314 40.8203 246.255 41.6589C245.24 42.4975 244.732 43.5127 244.732 44.7044V58.6079C244.732 59.623 244.688 60.3954 244.6 60.9251C244.555 61.4106 244.357 61.9844 244.004 62.6465C243.342 63.7941 241.62 64.3679 238.84 64.3679C236.721 64.3679 235.198 63.9927 234.271 63.2423C233.565 62.6244 233.168 61.6754 233.08 60.3954C233.08 59.9541 233.08 59.3141 233.08 58.4754V35.2368C233.08 34.2216 233.102 33.4713 233.146 32.9858C233.234 32.4561 233.433 31.8823 233.742 31.2644C234.36 30.0727 236.081 29.4768 238.906 29.4768C241.554 29.4768 243.209 29.9844 243.871 30.9996C244.357 31.7058 244.6 32.4341 244.6 33.1844C244.82 32.8754 245.129 32.5003 245.526 32.0589C245.968 31.6175 246.873 31.0216 248.241 30.2713C249.609 29.5209 250.801 29.1458 251.816 29.1458C252.875 29.1458 253.758 29.212 254.464 29.3444C255.171 29.4327 255.943 29.6092 256.782 29.874ZM260.341 46.9554C260.341 41.6589 262.194 37.2892 265.902 33.8465C269.61 30.4037 273.847 28.6823 278.614 28.6823C283.381 28.6823 287.596 30.4037 291.259 33.8465C294.923 37.2451 296.754 41.5927 296.754 46.8892C296.754 50.5527 295.806 53.8189 293.908 56.6878C292.01 59.5127 289.692 61.6092 286.956 62.9775C284.263 64.3016 281.461 64.9637 278.548 64.9637C275.634 64.9637 272.81 64.2575 270.073 62.8451C267.337 61.3885 265.019 59.2699 263.121 56.4892C261.268 53.6644 260.341 50.4865 260.341 46.9554ZM274.178 51.7223C275.59 52.7816 277.025 53.3113 278.481 53.3113C279.938 53.3113 281.394 52.7596 282.851 51.6561C284.308 50.5527 285.036 48.9196 285.036 46.7568C285.036 44.5941 284.352 42.983 282.983 41.9237C281.615 40.8644 280.137 40.3347 278.548 40.3347C276.959 40.3347 275.48 40.8865 274.112 41.9899C272.743 43.0934 272.059 44.7265 272.059 46.8892C272.059 49.0078 272.766 50.6189 274.178 51.7223ZM301.032 18.8837C301.032 17.8685 301.054 17.1182 301.098 16.6327C301.186 16.103 301.385 15.5072 301.694 14.8451C302.312 13.6534 304.033 13.0575 306.858 13.0575C309.55 13.0575 311.228 13.6534 311.89 14.8451C312.243 15.5072 312.441 16.103 312.486 16.6327C312.574 17.1623 312.618 17.9347 312.618 18.9499V49.6037C312.618 51.1927 312.75 52.2078 313.015 52.6492C313.28 53.0465 313.854 53.2451 314.737 53.2451C315.663 53.2451 316.281 53.2892 316.59 53.3775C316.899 53.4216 317.274 53.5982 317.716 53.9072C318.599 54.481 319.04 56.0479 319.04 58.6079C319.04 61.3885 318.599 63.0879 317.716 63.7058C316.568 64.5003 313.832 64.6327 309.506 64.103C306.108 63.6616 303.901 62.5361 302.886 60.7265C301.65 58.5637 301.032 55.121 301.032 50.3982V18.8837ZM355.678 42.7844C355.678 45.4768 354.994 47.4851 353.626 48.8092C352.302 50.0892 350.823 50.7292 349.19 50.7292H333.499C333.499 51.9651 334.227 53.0023 335.684 53.841C337.14 54.6796 338.597 55.0989 340.053 55.0989C342.613 55.0989 344.622 54.8341 346.078 54.3044L346.806 54.0396C347.866 53.5541 348.749 53.3113 349.455 53.3113C350.867 53.3113 352.081 54.3044 353.096 56.2906C353.67 57.4823 353.957 58.4975 353.957 59.3361C353.957 63.2644 349.256 65.2285 339.855 65.2285C336.589 65.2285 333.675 64.6768 331.115 63.5734C328.6 62.4258 326.635 60.9251 325.223 59.0713C322.442 55.4961 321.052 51.5016 321.052 47.0878C321.052 41.5265 322.84 37.0906 326.415 33.7803C330.034 30.4258 334.536 28.7485 339.921 28.7485C346.056 28.7485 350.558 30.9113 353.427 35.2368C354.928 37.532 355.678 40.0478 355.678 42.7844ZM341.709 44.7044C343.386 44.7044 344.224 43.9982 344.224 42.5858C344.224 41.5706 343.827 40.7541 343.033 40.1361C342.282 39.5182 341.179 39.2092 339.722 39.2092C338.31 39.2092 336.897 39.8051 335.485 40.9968C334.073 42.1444 333.366 43.3803 333.366 44.7044H341.709Z" fill="url(#paint0_linear_548_106)"/>
<path d="M378.057 24.8639C377.393 23.1595 376.079 21.7886 374.405 21.0528C372.73 20.3171 370.832 20.2766 369.127 20.9404C367.354 21.6308 366.485 23.3536 365.47 25.3649C364.452 27.3821 363.287 29.6909 360.92 31.5383C360.92 31.5383 369.513 35.5927 374.133 33.7931C375.837 33.1293 377.208 31.8156 377.944 30.1411C378.68 28.4665 378.72 26.5682 378.057 24.8639ZM366.461 31.0504V31.0614C366.892 31.251 368.691 31.8024 370.686 31.9864C368.586 31.7927 367.021 31.2959 366.461 31.0504Z" fill="#F2CDAC"/>
<path d="M361.466 12.1443C362.458 13.0919 363.033 14.3947 363.064 15.7661C363.096 17.1376 362.581 18.4653 361.633 19.4573C360.648 20.4889 359.205 20.5994 357.52 20.7282C355.83 20.8571 353.897 21.0044 351.938 22.1181C351.938 22.1181 351.584 15.0008 354.153 12.3116C355.1 11.3197 356.403 10.7448 357.775 10.7134C359.146 10.682 360.474 11.1967 361.466 12.1443ZM353.861 18.4157L353.853 18.4125C353.845 18.059 353.978 16.6539 354.42 15.2182C353.954 16.7294 353.851 17.9567 353.861 18.4157Z" fill="#F2CDAC"/>
<defs>
<linearGradient id="paint0_linear_548_106" x1="282.069" y1="88.046" x2="-3.48112e-05" y2="4.63251e-05" gradientUnits="userSpaceOnUse">
<stop stop-color="#F2CDAC"/>
<stop offset="1" stop-color="#80AADF"/>
</linearGradient>
</defs>
</svg>
