<svg width="500" height="500" viewBox="0 0 500 500" fill="none" xmlns="http://www.w3.org/2000/svg">
<path d="M179.89 135.4C176.946 146.339 170.823 156.158 162.296 163.616C153.769 171.073 143.221 175.834 131.988 177.294C120.754 178.755 109.34 176.85 99.1896 171.82C89.0392 166.791 80.609 158.863 74.966 149.041C69.3229 139.218 66.7207 127.943 67.4887 116.641C68.2567 105.339 72.3603 94.5186 79.2802 85.5498C86.2002 76.581 95.6253 69.8667 106.363 66.2567C117.1 62.6467 128.667 62.3033 139.6 65.27C146.85 67.2293 153.644 70.5974 159.592 75.1821C165.541 79.7669 170.528 85.4784 174.269 91.9906C178.011 98.5028 180.433 105.688 181.397 113.136C182.361 120.584 181.849 128.15 179.89 135.4Z" fill="#3BBB26" fill-opacity="0.4"/>
<path d="M168.11 132.81C165.867 141.147 161.201 148.631 154.703 154.315C148.205 160 140.166 163.628 131.605 164.741C123.043 165.855 114.344 164.403 106.608 160.57C98.872 156.737 92.4471 150.695 88.1465 143.209C83.8459 135.723 81.8629 127.129 82.4487 118.516C83.0344 109.902 86.1625 101.656 91.437 94.8207C96.7115 87.9857 103.895 82.8692 112.079 80.1188C120.263 77.3684 129.078 77.1078 137.41 79.37C148.566 82.388 158.067 89.7128 163.824 99.734C169.581 109.755 171.123 121.652 168.11 132.81Z" fill="#3BBB26" fill-opacity="0.4"/>
<path d="M166.74 131.83C166.759 131.594 166.795 131.36 166.85 131.13C166.94 130.63 167.08 129.95 167.24 129.13C167.33 128.68 167.44 128.19 167.55 127.64C167.66 127.09 167.67 126.47 167.75 125.81C167.956 124.296 168.049 122.768 168.03 121.24C168.105 117.049 167.542 112.871 166.36 108.85C163.619 99.1789 157.599 90.7626 149.332 85.0445C141.065 79.3263 131.066 76.6626 121.05 77.51C119.005 77.6726 116.973 77.9767 114.97 78.42C113.97 78.65 112.97 78.98 111.97 79.26C110.947 79.5192 109.944 79.8534 108.97 80.26C106.971 81.0389 105.027 81.951 103.15 82.99C101.27 84.1009 99.4688 85.3405 97.7599 86.7C94.2221 89.4686 91.1558 92.7916 88.6799 96.54C86.1552 100.41 84.2269 104.637 82.9599 109.08C81.7887 113.554 81.3032 118.18 81.5199 122.8C81.7687 127.294 82.7447 131.718 84.4099 135.9C85.2042 137.936 86.1329 139.917 87.1899 141.83C88.2838 143.673 89.4998 145.44 90.8299 147.12C92.1228 148.773 93.5331 150.33 95.0499 151.78C96.5521 153.176 98.1492 154.465 99.8299 155.64C106.146 160.086 113.533 162.769 121.23 163.41C127.342 163.9 133.489 163.094 139.269 161.045C145.049 158.996 150.331 155.751 154.77 151.52C157.824 148.646 160.424 145.325 162.48 141.67C163.266 140.358 163.958 138.991 164.55 137.58C164.82 136.98 165.09 136.43 165.3 135.91L165.79 134.46L166.48 132.46C166.553 132.235 166.64 132.015 166.74 131.8C166.708 132.032 166.651 132.26 166.57 132.48C166.42 132.97 166.22 133.63 165.97 134.48L165.51 135.95C165.32 136.48 165.05 137.03 164.8 137.65C164.238 139.084 163.569 140.475 162.8 141.81C160.772 145.515 158.189 148.887 155.14 151.81C150.669 156.153 145.325 159.496 139.463 161.615C133.601 163.734 127.355 164.581 121.14 164.1C113.303 163.47 105.775 160.764 99.3299 156.26C97.611 155.068 95.9771 153.758 94.4399 152.34C92.8873 150.863 91.4435 149.275 90.1199 147.59C88.7611 145.878 87.5183 144.078 86.3999 142.2C85.3158 140.267 84.3636 138.262 83.5499 136.2C81.8732 131.952 80.8939 127.461 80.6499 122.9C80.4196 118.187 80.9051 113.467 82.0899 108.9C83.3799 104.36 85.3488 100.041 87.9299 96.09C90.4681 92.2815 93.6013 88.9052 97.2099 86.09C98.9592 84.7102 100.8 83.4506 102.72 82.32C104.635 81.2633 106.619 80.3378 108.66 79.55C109.633 79.1247 110.636 78.7705 111.66 78.49C112.66 78.21 113.66 77.87 114.73 77.64C124.501 75.5007 134.707 76.6831 143.73 81C149.326 83.7277 154.278 87.6144 158.257 92.4022C162.236 97.19 165.152 102.769 166.81 108.77C167.965 112.846 168.485 117.076 168.35 121.31C168.343 122.85 168.219 124.388 167.98 125.91C167.89 126.57 167.83 127.18 167.73 127.74C167.63 128.3 167.49 128.74 167.38 129.23L166.9 131.23C166.862 131.434 166.808 131.634 166.74 131.83Z" fill="#3BBB26" fill-opacity="0.4"/>
<path d="M166.29 132.18C166.04 132.12 166.36 130.18 166.57 126.82C166.865 122.044 166.423 117.251 165.26 112.61C164.453 109.443 163.3 106.374 161.82 103.46C160.124 100.142 158.006 97.0562 155.52 94.28C154.183 92.7799 152.736 91.3826 151.19 90.1C149.59 88.7533 147.888 87.533 146.1 86.45C144.253 85.329 142.324 84.3495 140.33 83.52C138.267 82.6798 136.144 81.9946 133.98 81.47C131.811 80.9761 129.608 80.6419 127.39 80.47C125.233 80.3049 123.067 80.3049 120.91 80.47C116.818 80.8047 112.796 81.731 108.97 83.22C105.495 84.5789 102.208 86.3768 99.1898 88.57C96.557 90.5092 94.1428 92.729 91.9898 95.19C88.8593 98.8101 86.306 102.891 84.4198 107.29C83.0598 110.43 82.4998 112.29 82.2398 112.2C81.9798 112.11 82.2398 110.2 83.2398 106.84C84.7451 102.064 87.1181 97.6058 90.2398 93.69C94.8902 87.8125 100.971 83.2263 107.9 80.37C111.982 78.6765 116.298 77.6143 120.7 77.22C123.027 77.0025 125.368 76.9757 127.7 77.14C130.097 77.322 132.478 77.6864 134.82 78.23C137.152 78.8026 139.438 79.548 141.66 80.46C143.808 81.365 145.881 82.4383 147.86 83.67C149.774 84.8598 151.593 86.1972 153.3 87.67C154.939 89.0769 156.467 90.6081 157.87 92.25C160.474 95.2752 162.658 98.6391 164.36 102.25C165.797 105.387 166.857 108.683 167.52 112.07C168.536 116.972 168.641 122.02 167.83 126.96C167.24 130.43 166.52 132.23 166.29 132.18Z" fill="#3BBB26" fill-opacity="0.4"/>
<path d="M122.58 146.81L120.69 154.17L114.12 152.48L115.96 145.32C109.55 143.26 103.83 139.62 100.96 135.87L106.62 128.78C109.722 132.379 113.705 135.111 118.18 136.71L120.99 125.71C114.15 122.07 106.62 117.55 108.99 108.15C110.77 101.15 117.37 96.49 128.05 97.97L129.92 90.67L136.52 92.38L134.68 99.54C139.317 101.007 143.539 103.553 147 106.97L141.64 114.21C139.009 111.62 135.888 109.58 132.46 108.21L129.6 119.38C136.46 122.96 143.85 127.45 141.48 136.72C139.73 143.56 133.22 148.2 122.58 146.81ZM123.45 116.07L125.84 106.73C122.15 106.63 120.28 108.18 119.73 110.35C119.18 112.52 120.79 114.41 123.45 116.07ZM130.7 134.81C131.29 132.5 129.7 130.81 127.13 129.06L124.8 138.13C128.27 138.25 130.16 136.9 130.7 134.81Z" fill="#E0E0E0"/>
<path d="M94.1098 220.39C96.8032 227.498 97.3273 235.245 95.6158 242.65C93.9042 250.056 90.034 256.787 84.4949 261.992C78.9559 267.197 71.9971 270.641 64.4995 271.89C57.0019 273.138 49.3025 272.133 42.376 269.003C35.4495 265.874 29.6073 260.759 25.5889 254.307C21.5705 247.856 19.5567 240.357 19.8023 232.76C20.0479 225.163 22.5419 217.81 26.9686 211.631C31.3952 205.452 37.5556 200.726 44.6698 198.05C54.1885 194.458 64.744 194.794 74.0153 198.983C83.2865 203.173 90.5145 210.873 94.1098 220.39Z" fill="#3BBB26" fill-opacity="0.4"/>
<path d="M86.6899 223.61C88.7464 229.025 89.1499 234.929 87.8494 240.573C86.5489 246.218 83.6028 251.35 79.3841 255.319C75.1654 259.288 69.8639 261.917 64.1506 262.871C58.4374 263.826 52.5693 263.064 47.2894 260.682C42.0094 258.3 37.555 254.404 34.49 249.489C31.425 244.574 29.8872 238.86 30.0715 233.071C30.2557 227.281 32.1536 221.676 35.5248 216.966C38.8961 212.256 43.5892 208.652 49.0099 206.61C56.2611 203.87 64.3034 204.122 71.369 207.31C78.4346 210.498 83.9454 216.361 86.6899 223.61Z" fill="#3BBB26" fill-opacity="0.4"/>
<path d="M85.5199 223.61C85.4332 223.477 85.3595 223.337 85.2999 223.19C85.1599 222.88 84.9599 222.46 84.7199 221.92L84.2999 220.99C84.1299 220.66 83.9099 220.31 83.6899 219.92C83.207 219.015 82.6589 218.146 82.0499 217.32C80.4468 215.012 78.5011 212.962 76.2799 211.24C73.0483 208.691 69.3141 206.855 65.3225 205.852C61.331 204.849 57.1724 204.702 53.1199 205.42C48.0253 206.341 43.2665 208.598 39.3299 211.96C38.2636 212.852 37.2612 213.818 36.3299 214.85C35.8699 215.37 35.4599 215.94 35.0199 216.49C34.5682 217.035 34.1634 217.617 33.8099 218.23C33.0259 219.435 32.3243 220.691 31.7099 221.99C31.1291 223.334 30.6347 224.713 30.2299 226.12C29.3997 229.017 29.0385 232.029 29.1599 235.04C29.374 241.282 31.6292 247.282 35.5799 252.12C37.4723 254.467 39.7314 256.493 42.2699 258.12C43.502 258.916 44.7847 259.631 46.1099 260.26C47.4103 260.83 48.7465 261.314 50.1099 261.71C52.7855 262.506 55.5693 262.877 58.3599 262.81C63.5365 262.747 68.6031 261.308 73.0399 258.64C76.9067 256.316 80.1742 253.117 82.5799 249.3C84.5535 246.151 85.9109 242.656 86.5799 239C87.1108 236.239 87.2187 233.413 86.8999 230.62C86.8143 229.61 86.6538 228.607 86.4199 227.62C86.3299 227.18 86.2699 226.78 86.1699 226.41C86.0699 226.04 85.9699 225.73 85.8799 225.41L85.4799 224.08C85.4318 223.93 85.3951 223.776 85.3699 223.62C85.4414 223.761 85.4983 223.908 85.5399 224.06L85.9999 225.38C86.0899 225.67 86.1999 226 86.3199 226.38C86.4399 226.76 86.4999 227.15 86.5999 227.59C86.8557 228.575 87.0362 229.578 87.1399 230.59C87.4986 233.405 87.421 236.259 86.9099 239.05C86.1834 243.161 84.5905 247.071 82.2371 250.519C79.8837 253.967 76.8235 256.875 73.2599 259.05C69.8066 261.188 65.9428 262.577 61.9187 263.126C57.8946 263.676 53.7999 263.374 49.8999 262.24C48.4883 261.844 47.1051 261.353 45.7599 260.77C44.4071 260.133 43.0977 259.408 41.8399 258.6C39.2479 256.942 36.9414 254.875 35.0099 252.48C30.9623 247.544 28.6564 241.41 28.4499 235.03C28.3214 231.956 28.6964 228.883 29.5599 225.93C29.964 224.49 30.4686 223.08 31.0699 221.71C31.7614 220.388 32.5433 219.115 33.4099 217.9C33.7759 217.275 34.1905 216.68 34.6499 216.12C35.0999 215.57 35.5199 214.99 35.9899 214.45C36.9221 213.406 37.9244 212.427 38.9899 211.52C43.0095 208.098 47.8705 205.813 53.0699 204.9C57.1821 204.177 61.4012 204.338 65.4463 205.373C69.4914 206.407 73.2698 208.291 76.5299 210.9C78.7576 212.659 80.6976 214.754 82.2799 217.11C82.8814 217.952 83.4196 218.838 83.8899 219.76C84.0999 220.16 84.3099 220.51 84.4699 220.85L84.8699 221.8C85.0899 222.35 85.2699 222.8 85.3999 223.09C85.4526 223.26 85.4927 223.434 85.5199 223.61Z" fill="#3BBB26" fill-opacity="0.4"/>
<path d="M85.4501 223.98C85.2901 224.04 84.7201 222.89 83.4501 220.98C81.7327 218.268 79.6116 215.833 77.16 213.76C75.4745 212.357 73.6402 211.143 71.69 210.14C69.474 209.004 67.1215 208.157 64.69 207.62C62.0013 207.04 59.2428 206.851 56.5 207.06C55.0548 207.171 53.6205 207.395 52.21 207.73C50.7598 208.087 49.3363 208.544 47.9501 209.1C46.5703 209.67 45.2335 210.338 43.9501 211.1C42.7117 211.86 41.5348 212.716 40.43 213.66C39.3527 214.579 38.3495 215.583 37.43 216.66C36.5413 217.675 35.729 218.755 35 219.89C33.6382 221.991 32.5558 224.26 31.78 226.64C31.1332 228.716 30.7108 230.854 30.52 233.02C30.238 236.217 30.4505 239.438 31.1501 242.57C31.6401 244.8 32.06 246.03 31.89 246.09C31.72 246.15 31.09 245.03 30.32 242.8C29.2594 239.612 28.795 236.256 28.9501 232.9C29.0618 230.574 29.4409 228.269 30.0801 226.03C30.8284 223.461 31.9217 221.005 33.3301 218.73C34.8863 216.205 36.8185 213.932 39.0601 211.99C40.2425 210.967 41.503 210.037 42.8301 209.21C44.2063 208.37 45.6437 207.635 47.1301 207.01C48.6214 206.397 50.1597 205.906 51.73 205.54C54.7305 204.845 57.8215 204.626 60.8901 204.89C62.3318 205.014 63.7623 205.245 65.1701 205.58C67.7711 206.207 70.2767 207.179 72.62 208.47C74.6558 209.601 76.5492 210.97 78.26 212.55C80.7369 214.823 82.7712 217.536 84.26 220.55C85.28 222.65 85.57 223.9 85.4501 223.98Z" fill="#3BBB26" fill-opacity="0.4"/>
<path d="M67.4102 249.09L69.2802 253.83L65.0402 255.49L63.2302 250.9C58.9302 252.29 54.3902 252.56 51.3502 251.65L51.6402 245.57C54.7434 246.309 57.9849 246.233 61.0502 245.35L58.2702 238.27C53.1102 238.98 47.2702 239.47 44.8702 233.41C43.1002 228.92 44.8702 223.79 51.2402 220.41L49.4002 215.71L53.6302 214.05L55.4502 218.67C58.5441 217.641 61.8389 217.367 65.0602 217.87L64.9902 223.87C62.542 223.493 60.0431 223.608 57.6402 224.21L60.4702 231.41C65.6102 230.66 71.3902 230.2 73.7402 236.17C75.5202 240.59 73.7502 245.67 67.4102 249.09ZM55.8202 232.02L53.4602 226.02C51.4602 227.41 51.0002 229.02 51.5502 230.39C52.1002 231.76 53.7202 232.16 55.8202 232.02ZM67.1202 239.37C66.5402 237.89 64.9902 237.57 62.9202 237.65L65.2202 243.49C67.1502 242.2 67.6502 240.73 67.1202 239.37Z" fill="#E0E0E0"/>
<path d="M471.45 306.43C473.219 311.146 474.041 316.165 473.871 321.199C473.7 326.234 472.539 331.185 470.454 335.771C468.369 340.356 465.402 344.486 461.72 347.924C458.039 351.363 453.717 354.042 449 355.81C446.883 356.607 444.702 357.219 442.48 357.64C435.31 358.947 427.916 358.183 421.165 355.437C414.414 352.691 408.586 348.078 404.364 342.137C400.142 336.197 397.701 329.176 397.327 321.898C396.953 314.619 398.662 307.385 402.253 301.044C405.844 294.702 411.169 289.515 417.603 286.092C424.037 282.669 431.314 281.151 438.58 281.717C445.846 282.282 452.8 284.907 458.627 289.284C464.454 293.661 468.913 299.609 471.48 306.43H471.45Z" fill="#3BBB26" fill-opacity="0.4"/>
<path d="M464.02 309.65C466.074 315.063 466.477 320.965 465.176 326.607C463.874 332.249 460.929 337.378 456.711 341.345C452.493 345.312 447.194 347.939 441.482 348.892C435.771 349.846 429.906 349.084 424.628 346.702C419.35 344.32 414.898 340.426 411.835 335.513C408.771 330.599 407.234 324.888 407.419 319.1C407.603 313.313 409.5 307.711 412.87 303.002C416.24 298.294 420.931 294.691 426.35 292.65C433.6 289.911 441.641 290.163 448.705 293.351C455.769 296.539 461.278 302.401 464.02 309.65Z" fill="#3BBB26" fill-opacity="0.4"/>
<path d="M462.9 309.65C462.812 309.515 462.738 309.37 462.68 309.22C462.53 308.91 462.34 308.5 462.1 307.96L461.67 307.03C461.5 306.7 461.28 306.35 461.07 305.96C460.586 305.056 460.038 304.187 459.43 303.36C457.819 301.055 455.874 299.003 453.66 297.27C448.371 293.09 441.794 290.877 435.054 291.01C428.314 291.144 421.83 293.614 416.71 298C415.664 298.893 414.678 299.855 413.76 300.88C413.3 301.41 412.89 301.98 412.45 302.52C412.003 303.068 411.598 303.65 411.24 304.26C410.458 305.469 409.757 306.729 409.14 308.03C408.558 309.373 408.063 310.753 407.66 312.16C406.826 315.056 406.464 318.068 406.59 321.08C406.804 327.322 409.059 333.322 413.01 338.16C414.9 340.51 417.159 342.536 419.7 344.16C420.924 344.958 422.2 345.673 423.52 346.3C424.841 346.87 426.197 347.355 427.58 347.75C428.936 348.135 430.315 348.429 431.71 348.63C433.077 348.798 434.453 348.871 435.83 348.85C442.57 348.77 449.072 346.351 454.226 342.009C459.381 337.666 462.867 331.668 464.09 325.04C464.629 322.28 464.74 319.454 464.42 316.66C464.334 315.65 464.174 314.647 463.94 313.66C463.85 313.22 463.78 312.81 463.69 312.45L463.39 311.45C463.23 310.89 463.1 310.45 463 310.12C462.952 309.97 462.915 309.816 462.89 309.66C462.958 309.802 463.015 309.949 463.06 310.1L463.51 311.42L463.84 312.42C463.94 312.78 464.02 313.19 464.12 313.63C464.379 314.631 464.56 315.651 464.66 316.68C465.019 319.495 464.941 322.349 464.43 325.14C463.707 329.252 462.115 333.163 459.761 336.612C457.408 340.06 454.346 342.968 450.78 345.14C447.328 347.28 443.464 348.67 439.44 349.221C435.416 349.772 431.321 349.472 427.42 348.34C426.01 347.94 424.627 347.449 423.28 346.87C421.925 346.234 420.615 345.505 419.36 344.69C416.766 343.039 414.459 340.975 412.53 338.58C410.554 336.103 408.963 333.342 407.81 330.39C406.728 327.415 406.107 324.293 405.97 321.13C405.843 318.057 406.215 314.984 407.07 312.03C407.482 310.591 407.99 309.181 408.59 307.81C409.222 306.486 409.937 305.204 410.73 303.97C411.105 303.352 411.523 302.76 411.98 302.2C412.43 301.64 412.85 301.07 413.32 300.53C414.252 299.486 415.255 298.507 416.32 297.6C420.338 294.183 425.195 291.901 430.39 290.99C434.506 290.274 438.727 290.443 442.772 291.486C446.817 292.529 450.594 294.423 453.85 297.04C456.078 298.799 458.018 300.894 459.6 303.25C460.202 304.092 460.74 304.978 461.21 305.9C461.42 306.3 461.63 306.65 461.79 306.99L462.19 307.94C462.41 308.49 462.59 308.94 462.72 309.23C462.79 309.365 462.851 309.506 462.9 309.65Z" fill="#3BBB26" fill-opacity="0.4"/>
<path d="M462.79 310.01C462.63 310.08 462.06 308.92 460.79 307.01C459.08 304.295 456.962 301.86 454.51 299.79C452.827 298.384 450.992 297.17 449.04 296.17C446.824 295.034 444.471 294.187 442.04 293.65C439.351 293.07 436.593 292.881 433.85 293.09C432.405 293.201 430.97 293.425 429.56 293.76C428.108 294.112 426.685 294.57 425.3 295.13C423.921 295.702 422.585 296.37 421.3 297.13C420.066 297.893 418.893 298.748 417.79 299.69C416.712 300.591 415.709 301.577 414.79 302.64C413.901 303.655 413.089 304.735 412.36 305.87C410.998 307.971 409.916 310.24 409.14 312.62C408.466 314.705 408.023 316.858 407.82 319.04C407.537 322.24 407.75 325.465 408.45 328.6C408.94 330.83 409.36 332.06 409.19 332.12C409.02 332.18 408.38 331.06 407.61 328.83C406.555 325.641 406.094 322.285 406.25 318.93C406.472 313.906 407.981 309.024 410.63 304.75C412.19 302.231 414.122 299.962 416.36 298.02C417.539 296.989 418.799 296.056 420.13 295.23C421.505 294.388 422.943 293.653 424.43 293.03C425.922 292.427 427.456 291.936 429.02 291.56C430.547 291.214 432.098 290.984 433.66 290.87C436.617 290.678 439.586 290.927 442.47 291.61C447.361 292.784 451.868 295.195 455.56 298.61C458.032 300.887 460.066 303.599 461.56 306.61C462.62 308.69 462.91 309.97 462.79 310.01Z" fill="#3BBB26" fill-opacity="0.4"/>
<path d="M444.75 335.13L446.61 339.87L442.38 341.53L440.52 336.9C436.23 338.29 431.69 338.56 428.64 337.65L428.94 331.57C432.04 332.309 435.278 332.233 438.34 331.35L435.56 324.27C430.41 324.97 424.56 325.47 422.16 319.41C420.4 314.92 422.16 309.78 428.54 306.41L426.69 301.71L430.93 300.05L432.75 304.66C435.845 303.639 439.139 303.369 442.36 303.87L442.29 309.87C439.841 309.496 437.342 309.615 434.94 310.22L437.77 317.42C442.91 316.67 448.69 316.21 451.04 322.18C452.81 326.63 451.08 331.71 444.75 335.13ZM433.16 318.06L430.79 312.06C428.79 313.45 428.34 315.06 428.89 316.42C429.44 317.78 431.06 318.2 433.16 318.06ZM444.46 325.41C443.87 323.93 442.33 323.61 440.26 323.68L442.55 329.53C444.52 328.23 444.99 326.77 444.46 325.41Z" fill="#E0E0E0"/>
<path d="M6 487.65L136.86 254.08L350.44 236.3L395.08 116.72L435.89 140L375.95 283.05L174.74 300.83L67.52 487.9L6 487.65Z" fill="#409233"/>
<path d="M352.83 121.93L444.79 49L466.95 164.24L352.83 121.93Z" fill="#409233"/>
<path d="M460.16 487.66C460.16 487.8 362.27 487.92 241.53 487.92C120.79 487.92 22.8799 487.8 22.8799 487.66C22.8799 487.52 120.75 487.4 241.53 487.4C362.31 487.4 460.16 487.52 460.16 487.66Z" fill="#263238"/>
<path d="M87.6704 465.65L97.6804 487.76H102.52L103.21 486.08L104.07 487.76H107.24L106.87 474.85L106.71 467.23L87.6704 465.65Z" fill="#455A64"/>
<g opacity="0.3">
<path opacity="0.3" d="M87.6704 465.65L97.6804 487.76H102.52L103.21 486.08L104.07 487.76H107.24L106.87 474.85L106.71 467.23L87.6704 465.65Z" fill="black"/>
</g>
<path d="M131.5 468.02L141.27 487.76H146.1L146.8 486.22L147.65 487.76H150.83L150.46 475.95L150.3 468.96L131.5 468.02Z" fill="#455A64"/>
<g opacity="0.3">
<path opacity="0.3" d="M131.5 468.02L141.27 487.76H146.1L146.8 486.22L147.65 487.76H150.83L150.46 475.95L150.3 468.96L131.5 468.02Z" fill="black"/>
</g>
<path d="M182.28 429.83C183.73 462.65 156.22 479.02 125.08 479.02C93.9402 479.02 68.7002 457.7 68.7002 431.4C68.7002 405.1 93.9402 383.78 125.08 383.78C156.22 383.78 181.11 403.56 182.28 429.83Z" fill="#455A64"/>
<g opacity="0.3">
<path opacity="0.3" d="M121.15 395.54C121.15 395.54 124.89 394.35 128.39 398.31C131.89 402.27 136.76 409 136.76 409C136.548 410.118 136.044 411.16 135.299 412.02C134.555 412.881 133.596 413.529 132.52 413.9L121.15 395.54Z" fill="black"/>
</g>
<path d="M88.0004 465.52C98.6651 465.52 107.31 458.894 107.31 450.72C107.31 442.546 98.6651 435.92 88.0004 435.92C77.3358 435.92 68.6904 442.546 68.6904 450.72C68.6904 458.894 77.3358 465.52 88.0004 465.52Z" fill="#455A64"/>
<path d="M106.01 411.17C106.01 411.17 117.33 393.61 122.51 395.52C127.69 397.43 132.52 413.9 132.52 413.9" fill="#455A64"/>
<path d="M93.2102 407.15L92.6902 402.39C88.3255 400.599 83.8371 399.125 79.2602 397.98C72.9102 396.53 71.6602 397.98 71.6602 397.98L81.6602 412.04L93.2102 407.15Z" fill="#455A64"/>
<g opacity="0.3">
<path opacity="0.3" d="M108.32 390.31L112.07 392.54C112.07 392.54 130.26 387.73 144.22 392.54L139.1 388.18C139.1 388.18 122.16 384.54 108.32 390.31Z" fill="black"/>
</g>
<g opacity="0.3">
<path opacity="0.3" d="M88.0004 465.52C98.6651 465.52 107.31 458.894 107.31 450.72C107.31 442.546 98.6651 435.92 88.0004 435.92C77.3358 435.92 68.6904 442.546 68.6904 450.72C68.6904 458.894 77.3358 465.52 88.0004 465.52Z" fill="black"/>
</g>
<path d="M83.1003 465.52C93.0911 465.52 101.19 458.894 101.19 450.72C101.19 442.546 93.0911 435.92 83.1003 435.92C73.1094 435.92 65.0103 442.546 65.0103 450.72C65.0103 458.894 73.1094 465.52 83.1003 465.52Z" fill="#455A64"/>
<g opacity="0.3">
<path opacity="0.3" d="M76.2704 443.78H76.0204C75.0208 443.78 74.2104 444.59 74.2104 445.59V455.85C74.2104 456.85 75.0208 457.66 76.0204 457.66H76.2704C77.2701 457.66 78.0804 456.85 78.0804 455.85V445.59C78.0804 444.59 77.2701 443.78 76.2704 443.78Z" fill="black"/>
</g>
<g opacity="0.3">
<path opacity="0.3" d="M86.6704 443.78H86.4204C85.4207 443.78 84.6104 444.59 84.6104 445.59V455.85C84.6104 456.85 85.4207 457.66 86.4204 457.66H86.6704C87.67 457.66 88.4804 456.85 88.4804 455.85V445.59C88.4804 444.59 87.67 443.78 86.6704 443.78Z" fill="black"/>
</g>
<g opacity="0.3">
<path opacity="0.3" d="M92.1202 407.61C92.9511 407.23 93.6072 406.55 93.9561 405.705C94.305 404.861 94.3207 403.916 94.0002 403.06C89.2189 401.005 84.2921 399.307 79.2602 397.98C72.9102 396.53 71.6602 397.98 71.6602 397.98L81.6602 412.04L92.1202 407.61Z" fill="black"/>
</g>
<path d="M92.6902 408L91.4202 407.15C87.6802 404.65 76.7402 397.5 73.9702 397.42C70.1602 397.31 70.1602 400.59 70.1602 403.13C70.1602 404.93 71.6402 420.58 71.6402 420.58" fill="#455A64"/>
<path d="M132.52 413.9C132.52 413.9 132.52 413.9 132.52 413.79L132.41 413.47C132.31 413.17 132.17 412.76 132 412.23C131.63 411.15 131.09 409.6 130.34 407.7C129.473 405.481 128.471 403.317 127.34 401.22C126.683 399.979 125.913 398.801 125.04 397.7C124.586 397.121 124.058 396.603 123.47 396.16C122.896 395.677 122.161 395.427 121.41 395.46C120.658 395.548 119.934 395.801 119.29 396.2C118.651 396.567 118.042 396.985 117.47 397.45C116.387 398.344 115.365 399.309 114.41 400.34C112.58 402.34 111.07 404.2 109.83 405.81C108.59 407.42 107.65 408.81 107 409.7L106.25 410.78L106.05 411.06L105.98 411.15L106.04 411.05L106.22 410.76C106.38 410.5 106.62 410.13 106.93 409.66C107.57 408.71 108.5 407.36 109.72 405.73C111.144 403.816 112.666 401.977 114.28 400.22C115.233 399.178 116.259 398.205 117.35 397.31C117.93 396.833 118.549 396.404 119.2 396.03C119.866 395.62 120.614 395.36 121.39 395.27C121.791 395.227 122.196 395.282 122.57 395.43C122.926 395.583 123.261 395.778 123.57 396.01C124.168 396.463 124.706 396.991 125.17 397.58C126.047 398.689 126.817 399.877 127.47 401.13C128.587 403.239 129.569 405.417 130.41 407.65C131.14 409.55 131.66 411.12 132.01 412.2C132.18 412.74 132.31 413.2 132.39 413.46L132.48 413.78L132.52 413.9Z" fill="#263238"/>
<path d="M139.1 388.18L139.19 388.24L139.45 388.45L140.45 389.28L144.06 392.34L144.29 392.54L143.99 392.46C141.812 391.842 139.598 391.358 137.36 391.01C134.624 390.586 131.86 390.363 129.09 390.34C123.391 390.279 117.712 391.04 112.23 392.6L109.32 390.9L108.57 390.45L108.38 390.33H108.32H108.39L108.59 390.43L109.36 390.86L112.24 392.49C114.602 391.788 117.007 391.244 119.44 390.86C120.88 390.62 122.44 390.45 124.05 390.3C125.66 390.15 127.38 390.11 129.13 390.14C134.187 390.178 139.214 390.912 144.07 392.32L144.01 392.44L140.44 389.34L139.44 388.48L139.19 388.26C139.157 388.237 139.127 388.211 139.1 388.18Z" fill="#263238"/>
<g opacity="0.2">
<path opacity="0.2" d="M118.19 436.9C118.1 437.43 117.55 437.83 116.78 438.1C115.844 438.386 114.869 438.528 113.89 438.52C112.91 438.555 111.931 438.433 110.99 438.16C110.21 437.91 109.66 437.53 109.56 437C109.46 436.47 109.86 435.91 110.64 435.45C111.627 434.921 112.731 434.649 113.85 434.66C114.967 434.622 116.076 434.87 117.07 435.38C117.86 435.9 118.27 436.41 118.19 436.9Z" fill="#353131"/>
</g>
<path d="M93.89 438.9L93.78 438.83L93.48 438.63L93 438.31L92.3 437.92C90.8034 437.116 89.1908 436.549 87.52 436.24C86.3659 436.05 85.1995 435.943 84.03 435.92C82.6912 435.912 81.3538 436.009 80.03 436.21C76.979 436.653 74.0689 437.785 71.52 439.52C70.862 439.982 70.2371 440.49 69.65 441.04C68.0041 442.595 66.7263 444.498 65.91 446.61C65.06 448.976 64.897 451.535 65.44 453.99C65.665 454.93 66.0006 455.839 66.44 456.7C66.7783 457.343 67.1767 457.952 67.63 458.52L68.14 459.13L68.56 459.54L68.81 459.79L68.89 459.88L68.8 459.81L68.53 459.56L68.1 459.17L67.57 458.57C67.1038 458.005 66.6951 457.396 66.35 456.75C65.9089 455.883 65.5732 454.967 65.35 454.02C64.7823 451.54 64.9314 448.949 65.78 446.55C66.0402 445.861 66.351 445.193 66.71 444.55C67.4543 443.197 68.402 441.966 69.52 440.9C70.1142 440.344 70.7457 439.83 71.41 439.36C73.9803 437.615 76.9147 436.48 79.99 436.04C81.3131 435.834 82.6512 435.74 83.99 435.76C85.1639 435.787 86.334 435.904 87.49 436.11C89.1676 436.411 90.7853 436.981 92.28 437.8C92.54 437.95 92.77 438.08 92.97 438.21L93.44 438.55L93.73 438.77L93.89 438.9Z" fill="#263238"/>
<path d="M77.9701 445.08C77.9908 445.276 77.9908 445.474 77.9701 445.67C77.9701 446.09 77.9701 446.67 78.0401 447.28C78.0901 448.65 78.2001 450.52 78.2501 452.6C78.2501 453.12 78.2501 453.6 78.2501 454.12C78.2602 454.599 78.2234 455.078 78.1401 455.55C78.0907 455.962 77.9467 456.357 77.7195 456.704C77.4922 457.05 77.1879 457.34 76.8301 457.55C76.5814 457.678 76.3035 457.737 76.0244 457.723C75.7452 457.709 75.4747 457.622 75.2401 457.47C75.1104 457.389 75.0009 457.28 74.9201 457.15C74.8897 457.107 74.8661 457.06 74.8501 457.01C74.9696 457.164 75.1151 457.296 75.2801 457.4C75.5079 457.527 75.7643 457.594 76.0251 457.594C76.2859 457.594 76.5423 457.527 76.7701 457.4C77.0997 457.196 77.3789 456.92 77.5867 456.593C77.7945 456.265 77.9256 455.895 77.9701 455.51C78.0415 455.047 78.0716 454.578 78.0601 454.11C78.0601 453.62 78.0601 453.11 78.0601 452.6C78.0601 450.52 77.9201 448.6 77.9001 447.28C77.9001 446.6 77.9001 446.05 77.9001 445.66C77.9112 445.465 77.9346 445.272 77.9701 445.08Z" fill="#263238"/>
<path d="M88.2301 445.08C88.2468 445.276 88.2468 445.474 88.2301 445.67C88.2301 446.09 88.2301 446.67 88.3001 447.28C88.3601 448.65 88.4701 450.52 88.5201 452.6C88.5201 453.12 88.5201 453.6 88.5201 454.12C88.5252 454.599 88.4884 455.077 88.4101 455.55C88.3592 455.961 88.2147 456.356 87.9876 456.702C87.7605 457.049 87.4569 457.339 87.1001 457.55C86.8496 457.677 86.5702 457.737 86.2895 457.723C86.0088 457.709 85.7366 457.622 85.5001 457.47C85.374 457.385 85.2653 457.276 85.1801 457.15C85.1801 457.07 85.1101 457.02 85.1201 457.01C85.2304 457.169 85.3736 457.302 85.5401 457.4C85.7682 457.526 86.0245 457.592 86.2851 457.592C86.5457 457.592 86.8021 457.526 87.0301 457.4C87.3597 457.196 87.6389 456.92 87.8467 456.593C88.0545 456.265 88.1856 455.895 88.2301 455.51C88.305 455.047 88.3384 454.579 88.3301 454.11C88.3301 453.62 88.3301 453.11 88.3301 452.6C88.3301 450.52 88.1901 448.6 88.1601 447.28C88.1601 446.6 88.1601 446.05 88.1601 445.66C88.1649 445.465 88.1883 445.271 88.2301 445.08Z" fill="#263238"/>
<path d="M100.97 453.95C100.949 454.035 100.922 454.118 100.89 454.2C100.82 454.36 100.75 454.61 100.61 454.92C100.241 455.785 99.7887 456.612 99.2603 457.39C98.4685 458.54 97.5456 459.594 96.5103 460.53C95.8972 461.084 95.2492 461.599 94.5703 462.07C93.8394 462.567 93.0778 463.018 92.2903 463.42C90.7796 464.198 89.177 464.783 87.5203 465.16C86.1563 465.451 84.7648 465.591 83.3703 465.58C82.1803 465.58 81.2203 465.51 80.5603 465.46L79.7903 465.4H79.5303C79.6199 465.389 79.7106 465.389 79.8003 465.4H80.5603C81.2203 465.4 82.1803 465.46 83.3703 465.45C84.7556 465.445 86.1366 465.294 87.4903 465C89.1411 464.614 90.7394 464.029 92.2503 463.26C93.0146 462.853 93.7528 462.399 94.4603 461.9C95.1336 461.436 95.7781 460.932 96.3903 460.39C97.4214 459.468 98.344 458.431 99.1403 457.3C99.6728 456.544 100.135 455.741 100.52 454.9C100.67 454.6 100.76 454.36 100.83 454.2C100.9 454.04 100.96 453.9 100.97 453.95Z" fill="#263238"/>
<path d="M77.7503 444.67C77.6735 444.542 77.5901 444.419 77.5003 444.3C77.224 444.007 76.8431 443.834 76.4403 443.82C75.9748 443.826 75.5248 443.988 75.1622 444.28C74.7996 444.571 74.5454 444.977 74.4403 445.43C74.3573 445.804 74.3203 446.187 74.3303 446.57C74.3303 448.16 74.3303 449.57 74.3303 450.66V451.9C74.3428 452.05 74.3428 452.2 74.3303 452.35C74.3099 452.201 74.3099 452.049 74.3303 451.9C74.3303 451.57 74.3303 451.15 74.3303 450.66C74.3303 449.61 74.3303 448.17 74.2603 446.57C74.2546 446.173 74.2949 445.777 74.3803 445.39C74.4693 445.017 74.6517 444.673 74.9103 444.39C75.1242 444.154 75.3874 443.968 75.6812 443.846C75.975 443.723 76.2922 443.666 76.6103 443.68C76.8241 443.691 77.0332 443.747 77.2243 443.843C77.4154 443.939 77.5844 444.075 77.7203 444.24C77.7928 444.33 77.8502 444.432 77.8903 444.54C77.8103 444.627 77.7636 444.67 77.7503 444.67Z" fill="#353131"/>
<path d="M84.5204 445.53C84.5204 445.53 84.6104 447.48 84.6104 449.89C84.6104 452.3 84.6104 454.26 84.5204 454.26C84.4304 454.26 84.4204 452.31 84.4204 449.89C84.4204 447.47 84.5204 445.53 84.5204 445.53Z" fill="#353131"/>
<path d="M81.4303 437.1C81.4303 437.1 81.3603 437.1 81.2103 437.1H80.5203C79.7251 437.13 78.933 437.217 78.1503 437.36C75.1526 437.911 72.3797 439.322 70.1693 441.42C67.9589 443.519 66.4062 446.215 65.7003 449.18C65.6203 449.45 65.5903 449.67 65.5503 449.81C65.5432 449.886 65.5229 449.961 65.4903 450.03C65.4792 449.957 65.4792 449.883 65.4903 449.81C65.4903 449.66 65.4903 449.44 65.6003 449.16C65.7631 448.373 65.9906 447.6 66.2803 446.85C67.2372 444.353 68.8322 442.15 70.9063 440.462C72.9804 438.774 75.4609 437.66 78.1003 437.23C78.8926 437.091 79.6959 437.024 80.5003 437.03C80.7201 437.018 80.9404 437.018 81.1603 437.03L81.4303 437.1Z" fill="#353131"/>
<path d="M71.7303 418.2C71.7303 418.2 71.7303 418.28 71.6703 418.41L71.4403 419C71.3303 419.25 71.2103 419.57 71.0803 419.93C70.9503 420.29 70.7903 420.71 70.6503 421.18C70.5103 421.65 70.3303 422.18 70.1803 422.71C70.0303 423.24 69.8803 423.86 69.7303 424.48C69.4277 425.85 69.2007 427.235 69.0503 428.63C68.9114 430.022 68.848 431.421 68.8603 432.82C68.8603 433.47 68.8603 434.08 68.9403 434.65C69.0203 435.22 69.0303 435.76 69.0803 436.25C69.1303 436.74 69.2003 437.17 69.2503 437.55C69.3003 437.93 69.3503 438.27 69.4003 438.55L69.5103 439.17C69.5214 439.243 69.5214 439.317 69.5103 439.39C69.4784 439.324 69.4581 439.253 69.4503 439.18L69.3103 438.56C69.2503 438.3 69.1803 437.97 69.1203 437.56C69.0603 437.15 68.9803 436.74 68.9203 436.25C68.8603 435.76 68.8003 435.25 68.7603 434.66C68.7203 434.07 68.6903 433.46 68.6603 432.82C68.6394 431.411 68.6995 430.002 68.8403 428.6C68.9922 427.198 69.2259 425.805 69.5403 424.43C69.6903 423.8 69.8403 423.2 70.0103 422.65C70.1803 422.1 70.3403 421.59 70.5003 421.12C70.6603 420.65 70.8203 420.25 70.9603 419.88C71.1003 419.51 71.2303 419.21 71.3503 418.96C71.4703 418.71 71.5403 418.54 71.6103 418.39L71.7303 418.2Z" fill="#353131"/>
<path d="M72.2904 398.9C72.2904 398.9 72.1404 399.1 71.9104 399.49C71.6098 400.046 71.4005 400.647 71.2904 401.27C71.1413 402.199 71.0677 403.139 71.0704 404.08C71.0704 405.15 71.0704 406.32 71.0704 407.55C71.1304 410.01 71.3304 412.23 71.5104 413.83L71.7504 415.72C71.7504 415.93 71.7504 416.1 71.8204 416.24C71.8904 416.38 71.8204 416.42 71.8204 416.42C71.8204 416.42 71.8204 416.36 71.8204 416.25L71.7204 415.74C71.6404 415.29 71.5304 414.65 71.4204 413.85C71.1394 411.761 70.9725 409.658 70.9204 407.55C70.9204 406.32 70.9204 405.14 70.9204 404.07C70.9232 403.12 71.0136 402.173 71.1904 401.24C71.313 400.607 71.5466 400.001 71.8804 399.45C71.9724 399.302 72.076 399.162 72.1904 399.03L72.2904 398.9Z" fill="#353131"/>
<path d="M108.4 387.29L108.16 387.38L107.48 387.63L104.93 388.5C102.13 389.439 99.3799 390.52 96.6902 391.74C94.0038 392.973 91.4673 394.51 89.1302 396.32C88.2502 397.03 87.5602 397.64 87.1302 398.08C86.9002 398.29 86.7302 398.47 86.6102 398.58L86.4102 398.75L86.5802 398.55C86.6902 398.43 86.8502 398.24 87.0802 398.02C87.7144 397.385 88.382 396.784 89.0802 396.22C91.3987 394.364 93.938 392.802 96.6402 391.57C99.3329 390.337 102.098 389.268 104.92 388.37C106 388.02 106.87 387.74 107.48 387.56L108.18 387.35C108.25 387.32 108.324 387.299 108.4 387.29Z" fill="#353131"/>
<path d="M121.31 396.49L121.15 396.62L120.65 396.97C120.22 397.26 119.65 397.71 118.86 398.27C118.07 398.83 117.24 399.54 116.3 400.35C115.36 401.16 114.38 402.1 113.38 403.12C112.38 404.14 111.5 405.18 110.72 406.12C109.94 407.06 109.27 407.98 108.72 408.75C108.17 409.52 107.72 410.16 107.48 410.6L107.15 411.11C107.114 411.169 107.074 411.226 107.03 411.28C107.03 411.28 107.03 411.21 107.12 411.09L107.42 410.56C107.68 410.1 108.08 409.46 108.61 408.68C109.14 407.9 109.79 406.99 110.61 406.01C111.43 405.03 112.28 404.01 113.28 403.01C114.28 402.01 115.28 401.01 116.22 400.23C117.16 399.45 118.04 398.73 118.81 398.18C119.58 397.63 120.2 397.18 120.64 396.93L121.16 396.61L121.31 396.49Z" fill="#353131"/>
<path d="M178.52 422.3C178.704 422.591 178.852 422.903 178.96 423.23C179.268 424.006 179.525 424.801 179.73 425.61C179.933 426.417 180.087 427.235 180.19 428.06C180.242 428.391 180.262 428.726 180.25 429.06C180.155 428.733 180.088 428.398 180.05 428.06C179.94 427.44 179.78 426.57 179.54 425.64C179.3 424.71 179.04 423.86 178.83 423.26C178.708 422.946 178.605 422.626 178.52 422.3Z" fill="#353131"/>
<path d="M169.62 464.83L169.43 464.96L168.89 465.35L168 465.98L167.43 466.38L166.76 466.81C164.123 468.55 161.377 470.12 158.54 471.51C157.64 471.937 156.69 472.377 155.69 472.83L154.15 473.49L153.36 473.82L152.55 474.13L150.87 474.78L149.12 475.38C148.53 475.59 147.92 475.78 147.3 475.96C146.68 476.14 146.07 476.36 145.43 476.53C142.765 477.282 140.061 477.889 137.33 478.35C134.4 478.855 131.441 479.173 128.47 479.3C125.497 479.429 122.519 479.336 119.56 479.02L118.52 478.9C118.17 478.9 117.82 478.8 117.52 478.75L115.44 478.46L113.44 478.08L112.44 477.9L111.44 477.68C106.858 476.672 102.386 475.215 98.0901 473.33C95.164 472.092 92.3473 470.611 89.6701 468.9C88.6701 468.32 88.0301 467.77 87.5501 467.44L87.0101 467.04L86.8301 466.9L87.0201 467.03L87.5701 467.41C88.0601 467.73 88.7501 468.26 89.7101 468.84C92.3735 470.533 95.1692 472.008 98.0701 473.25C102.368 475.106 106.836 476.542 111.41 477.54L112.41 477.76L113.41 477.95L115.41 478.32L117.48 478.61L118.48 478.75L119.55 478.85C122.499 479.161 125.467 479.254 128.43 479.13C131.394 479.003 134.347 478.685 137.27 478.18C139.994 477.722 142.691 477.118 145.35 476.37C145.99 476.21 146.61 476 147.22 475.82C147.83 475.64 148.45 475.45 149.04 475.24L150.78 474.64L152.46 474L153.27 473.69L154.07 473.36L155.6 472.72C156.6 472.27 157.55 471.84 158.45 471.4C161.29 470.025 164.042 468.475 166.69 466.76C166.93 466.62 167.15 466.47 167.36 466.34L167.94 465.95L168.84 465.34L169.39 464.97C169.462 464.916 169.539 464.869 169.62 464.83Z" fill="#263238"/>
<path d="M153.64 468.8L161.09 487.86H166.19L167.3 486.21L168.61 487.86H170.41L171.08 457.65L153.64 468.8Z" fill="#455A64"/>
<path d="M106.8 471.48L113.1 487.86H118.89L120.07 485.97L121.22 487.9H122.65C122.65 487.9 123.28 469.42 122.65 468.9C122.02 468.38 106.8 471.48 106.8 471.48Z" fill="#455A64"/>
<path d="M180.42 434.9V435.01V435.33C180.42 435.62 180.36 436.03 180.31 436.55C180.31 436.82 180.25 437.12 180.22 437.44C180.19 437.76 180.11 438.11 180.05 438.44C179.92 439.19 179.81 440.05 179.57 440.97C179.46 441.43 179.35 441.92 179.23 442.43C179.11 442.94 178.93 443.43 178.77 443.99C178.48 445.07 178.04 446.19 177.6 447.38C176.576 449.917 175.338 452.362 173.9 454.69C172.425 457.001 170.752 459.179 168.9 461.2C168.02 462.11 167.2 462.99 166.35 463.72C165.93 464.1 165.54 464.48 165.14 464.81L163.97 465.75C163.24 466.36 162.51 466.83 161.9 467.27L161.03 467.88L160.27 468.34L159.22 468.97L158.94 469.13H158.84L158.93 469.06L159.2 468.89L160.2 468.22L160.95 467.75C161.22 467.57 161.5 467.35 161.81 467.14C162.41 466.69 163.13 466.21 163.81 465.59L164.97 464.64C165.37 464.31 165.75 463.93 166.17 463.55C167.01 462.82 167.82 461.94 168.7 461.03C172.401 457.003 175.338 452.337 177.37 447.26C177.81 446.08 178.25 444.97 178.55 443.89C178.71 443.35 178.89 442.84 179.01 442.34C179.13 441.84 179.25 441.34 179.37 440.89C179.62 439.97 179.73 439.12 179.87 438.37C179.94 438 180.01 437.66 180.06 437.37C180.11 437.08 180.13 436.76 180.16 436.49C180.23 435.98 180.28 435.57 180.31 435.28C180.31 435.15 180.31 435.04 180.31 434.96C180.31 434.88 180.41 434.9 180.42 434.9Z" fill="#353131"/>
<g opacity="0.2">
<path opacity="0.2" d="M172.35 418.78C170.53 414.362 167.072 410.818 162.7 408.89C161.888 408.569 161.011 408.445 160.141 408.529C159.271 408.613 158.434 408.902 157.698 409.373C156.962 409.843 156.348 410.482 155.907 411.236C155.466 411.99 155.21 412.838 155.16 413.71V413.79C155.184 416.494 155.948 419.14 157.37 421.44C158.797 423.722 160.083 426.09 161.22 428.53C162.888 432.693 162.941 437.329 161.37 441.53C160.37 444.17 158.73 446.99 160.22 449.62C160.723 450.452 161.457 451.122 162.331 451.547C163.206 451.973 164.185 452.137 165.15 452.02C168.94 451.67 170.9 448.25 172.7 445.14C174.28 442.272 175.202 439.088 175.4 435.82C175.604 429.988 174.564 424.179 172.35 418.78Z" fill="#353131"/>
</g>
<path d="M86.7501 428.36C86.7521 428.889 86.597 429.407 86.3043 429.847C86.0117 430.288 85.5948 430.632 85.1065 430.835C84.6183 431.038 84.0806 431.092 83.5617 430.989C83.0429 430.886 82.5662 430.632 82.1922 430.258C81.8182 429.884 81.5637 429.407 81.461 428.888C81.3583 428.37 81.412 427.832 81.6153 427.344C81.8186 426.855 82.1624 426.438 82.603 426.146C83.0436 425.853 83.5612 425.698 84.0901 425.7C84.7948 425.703 85.4699 425.984 85.9681 426.482C86.4664 426.98 86.7475 427.655 86.7501 428.36Z" fill="#263238"/>
<path d="M113.31 428.36C113.312 428.889 113.157 429.407 112.864 429.847C112.572 430.288 112.155 430.632 111.667 430.835C111.178 431.038 110.641 431.092 110.122 430.989C109.603 430.886 109.126 430.632 108.752 430.258C108.378 429.884 108.124 429.407 108.021 428.888C107.918 428.37 107.972 427.832 108.175 427.344C108.379 426.855 108.722 426.438 109.163 426.146C109.604 425.853 110.121 425.698 110.65 425.7C111.355 425.703 112.03 425.984 112.528 426.482C113.026 426.98 113.308 427.655 113.31 428.36Z" fill="#263238"/>
<path d="M171.52 406.05C171.52 406.05 171.45 405.99 171.33 405.85L170.84 405.25C170.62 404.99 170.36 404.67 170.04 404.31C169.72 403.95 169.38 403.53 168.96 403.09C168.54 402.65 168.11 402.16 167.61 401.66C167.11 401.16 166.61 400.66 166 400.07C164.83 398.98 163.5 397.83 162.05 396.7C160.6 395.57 159.14 394.59 157.79 393.7C157.11 393.28 156.47 392.88 155.85 392.54C155.23 392.2 154.65 391.87 154.12 391.59C153.59 391.31 153.12 391.07 152.66 390.86C152.2 390.65 151.86 390.47 151.55 390.33L150.85 390C150.69 389.92 150.6 389.88 150.61 389.87L150.86 389.96L151.58 390.26C151.9 390.39 152.28 390.55 152.71 390.76C153.14 390.97 153.64 391.19 154.18 391.47C154.72 391.75 155.31 392.05 155.93 392.4C156.55 392.75 157.2 393.14 157.93 393.55C159.28 394.4 160.74 395.39 162.21 396.55C163.68 397.71 164.99 398.84 166.16 399.94C166.73 400.5 167.28 401.02 167.76 401.55C168.24 402.08 168.76 402.55 169.11 403C169.46 403.45 169.86 403.87 170.17 404.24C170.48 404.61 170.73 404.94 170.93 405.24C171.13 405.54 171.29 405.7 171.4 405.86C171.51 406.02 171.52 406.05 171.52 406.05Z" fill="#353131"/>
<path d="M143.43 394.06L143.14 393.98L142.33 393.7C141.97 393.57 141.54 393.42 141.03 393.27C140.52 393.12 139.95 392.92 139.3 392.76L138.3 392.5C137.95 392.41 137.57 392.33 137.19 392.25C136.43 392.06 135.6 391.93 134.73 391.77C132.839 391.482 130.932 391.302 129.02 391.23C127.104 391.188 125.187 391.261 123.28 391.45C122.41 391.55 121.57 391.64 120.8 391.77C120.41 391.84 120.03 391.89 119.68 391.96L118.68 392.17C118.02 392.29 117.44 392.45 116.92 392.58C116.4 392.71 115.92 392.82 115.61 392.93L114.78 393.16L114.49 393.23C114.579 393.182 114.673 393.146 114.77 393.12L115.52 392.9C115.87 392.78 116.31 392.64 116.83 392.51C117.35 392.38 117.92 392.21 118.58 392.08L119.58 391.85L120.7 391.66C121.48 391.51 122.31 391.42 123.19 391.31C125.104 391.113 127.027 391.036 128.95 391.08C130.873 391.148 132.79 391.335 134.69 391.64C135.56 391.8 136.39 391.94 137.16 392.13L138.27 392.39L139.27 392.67C139.92 392.84 140.49 393.05 141 393.21C141.51 393.37 141.93 393.53 142.28 393.67L143.08 393.98L143.43 394.06Z" fill="#353131"/>
<path d="M170.65 462.49C170.687 462.416 170.73 462.346 170.78 462.28L171.21 461.68C171.6 461.16 172.21 460.39 172.88 459.39C174.89 456.553 176.64 453.541 178.11 450.39C180.254 445.71 181.583 440.698 182.04 435.57C182.562 429.285 181.666 422.963 179.42 417.07C177.177 411.176 173.703 405.827 169.23 401.38C165.585 397.749 161.468 394.625 156.99 392.09C153.975 390.367 150.832 388.876 147.59 387.63C146.44 387.18 145.59 386.88 144.92 386.63L144.22 386.4L143.99 386.31C144.073 386.295 144.158 386.295 144.24 386.31L144.95 386.49C145.58 386.67 146.5 386.94 147.66 387.36C150.946 388.535 154.127 389.984 157.17 391.69C161.711 394.194 165.884 397.313 169.57 400.96C174.123 405.466 177.647 410.904 179.9 416.9C182.182 422.864 183.078 429.269 182.52 435.63C182.046 440.803 180.668 445.853 178.45 450.55C176.948 453.717 175.143 456.731 173.06 459.55C172.32 460.55 171.72 461.28 171.31 461.78L170.83 462.35C170.72 462.44 170.66 462.5 170.65 462.49Z" fill="#263238"/>
</svg>
