<svg width="830" height="174" viewBox="0 0 830 174" fill="none" xmlns="http://www.w3.org/2000/svg">
<path d="M7.344 125.168C4.848 122.096 3.6 119.36 3.6 116.96C3.6 114.464 5.664 111.2 9.792 107.168C12.192 104.864 14.736 103.712 17.424 103.712C20.112 103.712 23.856 106.112 28.656 110.912C30 112.544 31.92 114.128 34.416 115.664C36.912 117.104 39.216 117.824 41.328 117.824C50.256 117.824 54.72 114.176 54.72 106.88C54.72 104.672 53.472 102.848 50.976 101.408C48.576 99.872 45.552 98.768 41.904 98.096C38.256 97.424 34.32 96.368 30.096 94.928C25.872 93.392 21.936 91.616 18.288 89.6C14.64 87.584 11.568 84.416 9.072 80.096C6.672 75.68 5.472 70.4 5.472 64.256C5.472 55.808 8.592 48.464 14.832 42.224C21.168 35.888 29.76 32.72 40.608 32.72C46.368 32.72 51.6 33.488 56.304 35.024C61.104 36.464 64.416 37.952 66.24 39.488L69.84 42.224C72.816 45.008 74.304 47.36 74.304 49.28C74.304 51.2 73.152 53.84 70.848 57.2C67.584 62 64.224 64.4 60.768 64.4C58.752 64.4 56.256 63.44 53.28 61.52C52.992 61.328 52.416 60.848 51.552 60.08C50.784 59.312 50.064 58.688 49.392 58.208C47.376 56.96 44.784 56.336 41.616 56.336C38.544 56.336 35.952 57.104 33.84 58.64C31.824 60.08 30.816 62.144 30.816 64.832C30.816 67.424 32.016 69.536 34.416 71.168C36.912 72.8 39.984 73.904 43.632 74.48C47.28 75.056 51.264 75.968 55.584 77.216C59.904 78.368 63.888 79.808 67.536 81.536C71.184 83.264 74.208 86.288 76.608 90.608C79.104 94.832 80.352 100.064 80.352 106.304C80.352 112.544 79.104 118.064 76.608 122.864C74.112 127.568 70.848 131.216 66.816 133.808C59.04 138.896 50.736 141.44 41.904 141.44C37.392 141.44 33.12 140.912 29.088 139.856C25.056 138.704 21.792 137.312 19.296 135.68C14.208 132.608 10.656 129.632 8.64 126.752L7.344 125.168ZM162.865 93.056C162.865 98.912 161.377 103.28 158.401 106.16C155.521 108.944 152.305 110.336 148.753 110.336H114.625C114.625 113.024 116.209 115.28 119.377 117.104C122.545 118.928 125.713 119.84 128.881 119.84C134.449 119.84 138.817 119.264 141.985 118.112L143.569 117.536C145.873 116.48 147.793 115.952 149.329 115.952C152.401 115.952 155.041 118.112 157.249 122.432C158.497 125.024 159.121 127.232 159.121 129.056C159.121 137.6 148.897 141.872 128.449 141.872C121.345 141.872 115.009 140.672 109.441 138.272C103.969 135.776 99.6971 132.512 96.6251 128.48C90.5771 120.704 87.5531 112.016 87.5531 102.416C87.5531 90.32 91.4411 80.672 99.2171 73.472C107.089 66.176 116.881 62.528 128.593 62.528C141.937 62.528 151.729 67.232 157.969 76.64C161.233 81.632 162.865 87.104 162.865 93.056ZM132.481 97.232C136.129 97.232 137.953 95.696 137.953 92.624C137.953 90.416 137.089 88.64 135.361 87.296C133.729 85.952 131.329 85.28 128.161 85.28C125.089 85.28 122.017 86.576 118.945 89.168C115.873 91.664 114.337 94.352 114.337 97.232H132.481ZM238.212 112.352L240.804 110.48C244.068 108.56 246.372 107.6 247.716 107.6C250.692 107.6 253.908 110.288 257.364 115.664C259.476 119.024 260.532 121.712 260.532 123.728C260.532 125.744 259.86 127.424 258.516 128.768C257.268 130.112 255.78 131.312 254.052 132.368C252.324 133.424 250.644 134.432 249.012 135.392C247.476 136.352 244.26 137.6 239.364 139.136C234.468 140.672 229.716 141.44 225.108 141.44C220.596 141.44 215.988 140.864 211.284 139.712C206.676 138.464 201.876 136.448 196.884 133.664C191.988 130.784 187.572 127.328 183.636 123.296C179.7 119.168 176.436 113.936 173.844 107.6C171.348 101.168 170.1 94.208 170.1 86.72C170.1 79.232 171.348 72.464 173.844 66.416C176.34 60.272 179.508 55.232 183.348 51.296C187.284 47.264 191.748 43.904 196.74 41.216C206.148 36.032 215.604 33.44 225.108 33.44C229.62 33.44 234.18 34.16 238.788 35.6C243.492 36.944 247.044 38.336 249.444 39.776L252.9 41.792C254.628 42.848 255.972 43.712 256.932 44.384C259.428 46.4 260.676 48.704 260.676 51.296C260.676 53.792 259.668 56.432 257.652 59.216C253.908 64.4 250.548 66.992 247.572 66.992C245.844 66.992 243.396 65.936 240.228 63.824C236.196 60.56 230.82 58.928 224.1 58.928C217.86 58.928 211.716 61.088 205.668 65.408C202.788 67.52 200.388 70.496 198.468 74.336C196.548 78.176 195.588 82.544 195.588 87.44C195.588 92.24 196.548 96.56 198.468 100.4C200.388 104.24 202.836 107.264 205.812 109.472C211.668 113.696 217.764 115.808 224.1 115.808C227.076 115.808 229.86 115.424 232.452 114.656C235.14 113.888 237.06 113.12 238.212 112.352ZM267.834 102.128C267.834 90.608 271.866 81.104 279.93 73.616C287.994 66.128 297.21 62.384 307.578 62.384C317.946 62.384 327.114 66.128 335.082 73.616C343.05 81.008 347.034 90.464 347.034 101.984C347.034 109.952 344.97 117.056 340.842 123.296C336.714 129.44 331.674 134 325.722 136.976C319.866 139.856 313.77 141.296 307.434 141.296C301.098 141.296 294.954 139.76 289.002 136.688C283.05 133.52 278.01 128.912 273.882 122.864C269.85 116.72 267.834 109.808 267.834 102.128ZM297.93 112.496C301.002 114.8 304.122 115.952 307.29 115.952C310.458 115.952 313.626 114.752 316.794 112.352C319.962 109.952 321.546 106.4 321.546 101.696C321.546 96.992 320.058 93.488 317.082 91.184C314.106 88.88 310.89 87.728 307.434 87.728C303.978 87.728 300.762 88.928 297.786 91.328C294.81 93.728 293.322 97.28 293.322 101.984C293.322 106.592 294.858 110.096 297.93 112.496ZM398.53 64.112C408.13 64.112 416.098 67.808 422.434 75.2C428.866 82.496 432.082 91.424 432.082 101.984V127.328C432.082 129.536 431.986 131.216 431.794 132.368C431.698 133.424 431.314 134.624 430.642 135.968C429.298 138.56 425.554 139.856 419.41 139.856C412.594 139.856 408.658 138.08 407.602 134.528C407.026 132.896 406.738 130.448 406.738 127.184V101.84C406.738 97.904 405.586 94.832 403.282 92.624C401.074 90.416 398.05 89.312 394.21 89.312C390.466 89.312 387.394 90.464 384.994 92.768C382.69 95.072 381.538 98.096 381.538 101.84V127.328C381.538 129.536 381.442 131.216 381.25 132.368C381.154 133.424 380.722 134.624 379.954 135.968C378.706 138.56 375.01 139.856 368.866 139.856C362.818 139.856 359.122 138.56 357.778 135.968C357.106 134.528 356.674 133.28 356.482 132.224C356.386 131.072 356.338 129.392 356.338 127.184V76.208C356.338 74.096 356.386 72.512 356.482 71.456C356.674 70.304 357.154 69.056 357.922 67.712C359.266 65.312 362.962 64.112 369.01 64.112C374.866 64.112 378.466 65.216 379.81 67.424C380.77 69.056 381.25 71.024 381.25 73.328C381.634 72.656 382.498 71.696 383.842 70.448C385.186 69.2 386.482 68.192 387.73 67.424C390.994 65.216 394.594 64.112 398.53 64.112ZM486.324 89.6L476.964 89.024V108.896C476.964 111.488 477.348 113.36 478.116 114.512C478.98 115.664 480.516 116.24 482.724 116.24C485.028 116.24 486.756 116.336 487.908 116.528C489.156 116.624 490.452 117.056 491.796 117.824C494.004 119.072 495.108 122.288 495.108 127.472C495.108 133.52 493.764 137.216 491.076 138.56C489.636 139.232 488.34 139.664 487.188 139.856C486.132 139.952 484.548 140 482.436 140C472.452 140 464.868 137.744 459.684 133.232C454.5 128.72 451.908 121.088 451.908 110.336V89.024C450.084 89.312 448.116 89.456 446.004 89.456C443.892 89.456 442.116 88.64 440.676 87.008C439.332 85.376 438.66 82.592 438.66 78.656C438.66 74.72 438.9 71.888 439.38 70.16C439.86 68.336 440.532 67.04 441.396 66.272C442.932 65.024 444.852 64.4 447.156 64.4L451.908 64.976V50.144C451.908 47.936 451.956 46.304 452.052 45.248C452.244 44.192 452.724 43.04 453.492 41.792C454.74 39.392 458.436 38.192 464.58 38.192C471.108 38.192 474.996 39.968 476.244 43.52C476.724 45.056 476.964 47.504 476.964 50.864V64.976C481.188 64.592 484.356 64.4 486.468 64.4C488.676 64.4 490.308 64.496 491.364 64.688C492.516 64.784 493.812 65.216 495.252 65.984C497.748 67.232 498.996 70.928 498.996 77.072C498.996 83.12 497.7 86.816 495.108 88.16C493.668 88.832 492.372 89.264 491.22 89.456C490.164 89.552 488.532 89.6 486.324 89.6ZM558.5 64.976C560.324 65.552 561.812 66.56 562.964 68C564.212 69.344 564.836 71.552 564.836 74.624C564.836 77.696 563.924 81.056 562.1 84.704C560.276 88.352 557.636 90.176 554.18 90.176C552.452 90.176 550.772 89.792 549.14 89.024C547.604 88.256 545.54 87.872 542.948 87.872C540.356 87.872 537.908 88.784 535.604 90.608C533.396 92.432 532.292 94.64 532.292 97.232V127.472C532.292 129.68 532.196 131.36 532.004 132.512C531.908 133.568 531.476 134.816 530.708 136.256C529.268 138.752 525.524 140 519.476 140C514.868 140 511.556 139.184 509.54 137.552C508.004 136.208 507.14 134.144 506.948 131.36C506.948 130.4 506.948 129.008 506.948 127.184V76.64C506.948 74.432 506.996 72.8 507.092 71.744C507.284 70.592 507.716 69.344 508.388 68C509.732 65.408 513.476 64.112 519.62 64.112C525.38 64.112 528.98 65.216 530.42 67.424C531.476 68.96 532.004 70.544 532.004 72.176C532.484 71.504 533.156 70.688 534.02 69.728C534.98 68.768 536.948 67.472 539.924 65.84C542.9 64.208 545.492 63.392 547.7 63.392C550.004 63.392 551.924 63.536 553.46 63.824C554.996 64.016 556.676 64.4 558.5 64.976ZM566.241 102.128C566.241 90.608 570.273 81.104 578.337 73.616C586.401 66.128 595.617 62.384 605.985 62.384C616.353 62.384 625.521 66.128 633.489 73.616C641.457 81.008 645.441 90.464 645.441 101.984C645.441 109.952 643.377 117.056 639.249 123.296C635.121 129.44 630.081 134 624.129 136.976C618.273 139.856 612.177 141.296 605.841 141.296C599.505 141.296 593.361 139.76 587.409 136.688C581.457 133.52 576.417 128.912 572.289 122.864C568.257 116.72 566.241 109.808 566.241 102.128ZM596.337 112.496C599.409 114.8 602.529 115.952 605.697 115.952C608.865 115.952 612.033 114.752 615.201 112.352C618.369 109.952 619.953 106.4 619.953 101.696C619.953 96.992 618.465 93.488 615.489 91.184C612.513 88.88 609.297 87.728 605.841 87.728C602.385 87.728 599.169 88.928 596.193 91.328C593.217 93.728 591.729 97.28 591.729 101.984C591.729 106.592 593.265 110.096 596.337 112.496ZM654.744 41.072C654.744 38.864 654.792 37.232 654.888 36.176C655.08 35.024 655.512 33.728 656.184 32.288C657.528 29.696 661.272 28.4 667.416 28.4C673.272 28.4 676.92 29.696 678.36 32.288C679.128 33.728 679.56 35.024 679.656 36.176C679.848 37.328 679.944 39.008 679.944 41.216V107.888C679.944 111.344 680.232 113.552 680.808 114.512C681.384 115.376 682.632 115.808 684.552 115.808C686.568 115.808 687.912 115.904 688.584 116.096C689.256 116.192 690.072 116.576 691.032 117.248C692.952 118.496 693.912 121.904 693.912 127.472C693.912 133.52 692.952 137.216 691.032 138.56C688.536 140.288 682.584 140.576 673.176 139.424C665.784 138.464 660.984 136.016 658.776 132.08C656.088 127.376 654.744 119.888 654.744 109.616V41.072ZM773.6 93.056C773.6 98.912 772.112 103.28 769.136 106.16C766.256 108.944 763.04 110.336 759.488 110.336H725.36C725.36 113.024 726.944 115.28 730.112 117.104C733.28 118.928 736.448 119.84 739.616 119.84C745.184 119.84 749.552 119.264 752.72 118.112L754.304 117.536C756.608 116.48 758.528 115.952 760.064 115.952C763.136 115.952 765.776 118.112 767.984 122.432C769.232 125.024 769.856 127.232 769.856 129.056C769.856 137.6 759.632 141.872 739.184 141.872C732.08 141.872 725.744 140.672 720.176 138.272C714.704 135.776 710.432 132.512 707.36 128.48C701.312 120.704 698.288 112.016 698.288 102.416C698.288 90.32 702.176 80.672 709.952 73.472C717.824 66.176 727.616 62.528 739.328 62.528C752.672 62.528 762.464 67.232 768.703 76.64C771.968 81.632 773.6 87.104 773.6 93.056ZM743.216 97.232C746.864 97.232 748.688 95.696 748.688 92.624C748.688 90.416 747.824 88.64 746.096 87.296C744.464 85.952 742.064 85.28 738.896 85.28C735.824 85.28 732.752 86.576 729.68 89.168C726.608 91.664 725.072 94.352 725.072 97.232H743.216Z" fill="#F2F2F2"/>
<g clip-path="url(#clip0_548_32)">
<path d="M822.273 54.0789C820.829 50.3719 817.972 47.3902 814.33 45.7899C810.687 44.1896 806.559 44.1016 802.852 45.5454C798.996 47.047 797.105 50.794 794.897 55.1686C792.683 59.5561 790.15 64.5776 785 68.5958C785 68.5958 803.69 77.4141 813.739 73.5C817.446 72.0562 820.428 69.1989 822.028 65.5568C823.629 61.9146 823.717 57.7859 822.273 54.0789ZM797.052 67.5346L797.052 67.5585C797.99 67.971 801.903 69.1703 806.242 69.5705C801.675 69.1492 798.271 68.0685 797.052 67.5346Z" fill="#F2F2F2"/>
</g>
<g clip-path="url(#clip1_548_32)">
<path d="M786.188 26.4138C788.346 28.4748 789.596 31.3084 789.664 34.2913C789.733 37.2742 788.613 40.1621 786.552 42.3196C784.409 44.5634 781.27 44.8037 777.605 45.0838C773.93 45.3642 769.725 45.6845 765.466 48.1068C765.466 48.1068 764.695 32.6268 770.283 26.7778C772.343 24.6203 775.177 23.3699 778.16 23.3016C781.143 23.2334 784.031 24.3529 786.188 26.4138ZM769.647 40.0541L769.631 40.0472C769.613 39.2784 769.901 36.2223 770.863 33.0996C769.85 36.3865 769.626 39.0559 769.647 40.0541Z" fill="#F2F2F2"/>
</g>
<defs>
<clipPath id="clip0_548_32">
<rect width="40" height="40" fill="white" transform="translate(792.517 86.7897) rotate(-111.28)"/>
</clipPath>
<clipPath id="clip1_548_32">
<rect width="30" height="30" fill="white" transform="matrix(0.723098 0.690745 0.690745 -0.723098 755 37.6929)"/>
</clipPath>
</defs>
</svg>
