<svg width="11" height="36" viewBox="0 0 11 36" fill="none" xmlns="http://www.w3.org/2000/svg">
<path fill-rule="evenodd" clip-rule="evenodd" d="M10.2366 0.146676C9.91068 -0.0177851 9.53328 -0.0451338 9.18738 0.0706454C8.84148 0.186425 8.55541 0.435849 8.3921 0.764051L0.145641 17.375C0.0498686 17.5675 0 17.7799 0 17.9952C0 18.2105 0.0498686 18.4228 0.145641 18.6153L8.3921 35.2263C8.4721 35.3903 8.58354 35.5366 8.71998 35.657C8.85643 35.7774 9.01518 35.8694 9.18708 35.9277C9.35899 35.9859 9.54065 36.0094 9.72159 35.9966C9.90253 35.9839 10.0792 35.9352 10.2413 35.8533C10.4035 35.7715 10.548 35.6581 10.6664 35.5198C10.7849 35.3814 10.875 35.2208 10.9315 35.0472C10.9881 34.8736 11.0099 34.6905 10.9959 34.5084C10.9818 34.3262 10.9321 34.1487 10.8495 33.986L2.9137 17.9952L10.8495 2.00434C11.0128 1.67613 11.04 1.29603 10.925 0.94765C10.8101 0.599274 10.5624 0.311156 10.2366 0.146676Z" fill="#F2F2F2"/>
</svg>
