<svg width="95" height="95" viewBox="0 0 95 95" fill="none" xmlns="http://www.w3.org/2000/svg">
<path d="M0 23.75C0 20.6006 1.25111 17.5801 3.47811 15.3531C5.7051 13.1261 8.72555 11.875 11.875 11.875H83.125C86.2744 11.875 89.2949 13.1261 91.5219 15.3531C93.7489 17.5801 95 20.6006 95 23.75V71.25C95 74.3994 93.7489 77.4199 91.5219 79.6469C89.2949 81.8739 86.2744 83.125 83.125 83.125H11.875C8.72555 83.125 5.7051 81.8739 3.47811 79.6469C1.25111 77.4199 0 74.3994 0 71.25V23.75ZM11.875 17.8125C10.3003 17.8125 8.79005 18.4381 7.67655 19.5516C6.56306 20.6651 5.9375 22.1753 5.9375 23.75V29.6875H89.0625V23.75C89.0625 22.1753 88.4369 20.6651 87.3234 19.5516C86.2099 18.4381 84.6997 17.8125 83.125 17.8125H11.875ZM89.0625 41.5625H5.9375V71.25C5.9375 72.8247 6.56306 74.3349 7.67655 75.4484C8.79005 76.5619 10.3003 77.1875 11.875 77.1875H83.125C84.6997 77.1875 86.2099 76.5619 87.3234 75.4484C88.4369 74.3349 89.0625 72.8247 89.0625 71.25V41.5625Z" fill="#0D0D0D"/>
<path d="M11.875 59.375C11.875 57.8003 12.5006 56.2901 13.6141 55.1766C14.7276 54.0631 16.2378 53.4375 17.8125 53.4375H23.75C25.3247 53.4375 26.8349 54.0631 27.9484 55.1766C29.0619 56.2901 29.6875 57.8003 29.6875 59.375V65.3125C29.6875 66.8872 29.0619 68.3974 27.9484 69.5109C26.8349 70.6244 25.3247 71.25 23.75 71.25H17.8125C16.2378 71.25 14.7276 70.6244 13.6141 69.5109C12.5006 68.3974 11.875 66.8872 11.875 65.3125V59.375Z" fill="#0D0D0D"/>
</svg>
