<svg width="26" height="8" viewBox="0 0 26 8" fill="none" xmlns="http://www.w3.org/2000/svg">
<path fill-rule="evenodd" clip-rule="evenodd" d="M0.911882 0.705001C1.02328 0.483211 1.21808 0.314646 1.45358 0.236266C1.68907 0.157885 1.94604 0.176085 2.16813 0.286876L13 5.7L23.83 0.285001C23.9402 0.228716 24.0604 0.194796 24.1838 0.185198C24.3071 0.1756 24.4312 0.190514 24.5487 0.229079C24.6663 0.267645 24.775 0.329098 24.8687 0.409898C24.9624 0.490699 25.0392 0.589247 25.0947 0.69986C25.1501 0.810474 25.1831 0.930965 25.1917 1.05439C25.2004 1.17781 25.1845 1.30172 25.145 1.41898C25.1055 1.53624 25.0432 1.64453 24.9617 1.7376C24.8802 1.83067 24.781 1.90668 24.67 1.96125L13.42 7.58625C13.2896 7.65158 13.1458 7.68559 13 7.68559C12.8542 7.68559 12.7104 7.65158 12.58 7.58625L1.33001 1.96125C1.10822 1.84985 0.939652 1.65505 0.861271 1.41956C0.78289 1.18406 0.801091 0.927096 0.911882 0.705001Z" fill="#0D0D0D"/>
</svg>
