<svg width="35" height="25" viewBox="0 0 35 25" fill="none" xmlns="http://www.w3.org/2000/svg">
<path d="M35 12.5C35 12.5 28.4375 0.46875 17.5 0.46875C6.5625 0.46875 0 12.5 0 12.5C0 12.5 6.5625 24.5312 17.5 24.5312C28.4375 24.5312 35 12.5 35 12.5ZM2.56594 12.5C3.62363 10.8925 4.84015 9.39525 6.19719 8.03094C9.0125 5.21125 12.8625 2.65625 17.5 2.65625C22.1375 2.65625 25.9853 5.21125 28.805 8.03094C30.162 9.39525 31.3786 10.8925 32.4362 12.5C32.3094 12.6903 32.1694 12.9003 32.0097 13.13C31.2769 14.18 30.1941 15.58 28.805 16.9691C25.9853 19.7887 22.1353 22.3438 17.5 22.3438C12.8625 22.3438 9.01469 19.7887 6.195 16.9691C4.83798 15.6047 3.62145 14.1075 2.56375 12.5H2.56594Z" fill="#0D0D0D"/>
<path d="M17.5 7.03125C16.0496 7.03125 14.6586 7.60742 13.633 8.63301C12.6074 9.6586 12.0312 11.0496 12.0312 12.5C12.0312 13.9504 12.6074 15.3414 13.633 16.367C14.6586 17.3926 16.0496 17.9688 17.5 17.9688C18.9504 17.9688 20.3414 17.3926 21.367 16.367C22.3926 15.3414 22.9688 13.9504 22.9688 12.5C22.9688 11.0496 22.3926 9.6586 21.367 8.63301C20.3414 7.60742 18.9504 7.03125 17.5 7.03125ZM9.84375 12.5C9.84375 10.4694 10.6504 8.52204 12.0862 7.08621C13.522 5.65039 15.4694 4.84375 17.5 4.84375C19.5306 4.84375 21.478 5.65039 22.9138 7.08621C24.3496 8.52204 25.1562 10.4694 25.1562 12.5C25.1562 14.5306 24.3496 16.478 22.9138 17.9138C21.478 19.3496 19.5306 20.1562 17.5 20.1562C15.4694 20.1562 13.522 19.3496 12.0862 17.9138C10.6504 16.478 9.84375 14.5306 9.84375 12.5Z" fill="#0D0D0D"/>
</svg>
