<svg width="161" height="174" viewBox="0 0 161 174" fill="none" xmlns="http://www.w3.org/2000/svg">
<path d="M7.344 125.168C4.848 122.096 3.6 119.36 3.6 116.96C3.6 114.464 5.664 111.2 9.792 107.168C12.192 104.864 14.736 103.712 17.424 103.712C20.112 103.712 23.856 106.112 28.656 110.912C30 112.544 31.92 114.128 34.416 115.664C36.912 117.104 39.216 117.824 41.328 117.824C50.256 117.824 54.72 114.176 54.72 106.88C54.72 104.672 53.472 102.848 50.976 101.408C48.576 99.872 45.552 98.768 41.904 98.096C38.256 97.424 34.32 96.368 30.096 94.928C25.872 93.392 21.936 91.616 18.288 89.6C14.64 87.584 11.568 84.416 9.072 80.096C6.672 75.68 5.472 70.4 5.472 64.256C5.472 55.808 8.592 48.464 14.832 42.224C21.168 35.888 29.76 32.72 40.608 32.72C46.368 32.72 51.6 33.488 56.304 35.024C61.104 36.464 64.416 37.952 66.24 39.488L69.84 42.224C72.816 45.008 74.304 47.36 74.304 49.28C74.304 51.2 73.152 53.84 70.848 57.2C67.584 62 64.224 64.4 60.768 64.4C58.752 64.4 56.256 63.44 53.28 61.52C52.992 61.328 52.416 60.848 51.552 60.08C50.784 59.312 50.064 58.688 49.392 58.208C47.376 56.96 44.784 56.336 41.616 56.336C38.544 56.336 35.952 57.104 33.84 58.64C31.824 60.08 30.816 62.144 30.816 64.832C30.816 67.424 32.016 69.536 34.416 71.168C36.912 72.8 39.984 73.904 43.632 74.48C47.28 75.056 51.264 75.968 55.584 77.216C59.904 78.368 63.888 79.808 67.536 81.536C71.184 83.264 74.208 86.288 76.608 90.608C79.104 94.832 80.352 100.064 80.352 106.304C80.352 112.544 79.104 118.064 76.608 122.864C74.112 127.568 70.848 131.216 66.816 133.808C59.04 138.896 50.736 141.44 41.904 141.44C37.392 141.44 33.12 140.912 29.088 139.856C25.056 138.704 21.792 137.312 19.296 135.68C14.208 132.608 10.656 129.632 8.64 126.752L7.344 125.168Z" fill="#80AADF"/>
<path d="M134.712 112.352L137.304 110.48C140.568 108.56 142.872 107.6 144.216 107.6C147.192 107.6 150.408 110.288 153.864 115.664C155.976 119.024 157.032 121.712 157.032 123.728C157.032 125.744 156.36 127.424 155.016 128.768C153.768 130.112 152.28 131.312 150.552 132.368C148.824 133.424 147.144 134.432 145.512 135.392C143.976 136.352 140.76 137.6 135.864 139.136C130.968 140.672 126.216 141.44 121.608 141.44C117.096 141.44 112.488 140.864 107.784 139.712C103.176 138.464 98.376 136.448 93.384 133.664C88.488 130.784 84.072 127.328 80.136 123.296C76.2 119.168 72.936 113.936 70.344 107.6C67.848 101.168 66.6 94.208 66.6 86.72C66.6 79.232 67.848 72.464 70.344 66.416C72.84 60.272 76.008 55.232 79.848 51.296C83.784 47.264 88.248 43.904 93.24 41.216C102.648 36.032 112.104 33.44 121.608 33.44C126.12 33.44 130.68 34.16 135.288 35.6C139.992 36.944 143.544 38.336 145.944 39.776L149.4 41.792C151.128 42.848 152.472 43.712 153.432 44.384C155.928 46.4 157.176 48.704 157.176 51.296C157.176 53.792 156.168 56.432 154.152 59.216C150.408 64.4 147.048 66.992 144.072 66.992C142.344 66.992 139.896 65.936 136.728 63.824C132.696 60.56 127.32 58.928 120.6 58.928C114.36 58.928 108.216 61.088 102.168 65.408C99.288 67.52 96.888 70.496 94.968 74.336C93.048 78.176 92.088 82.544 92.088 87.44C92.088 92.24 93.048 96.56 94.968 100.4C96.888 104.24 99.336 107.264 102.312 109.472C108.168 113.696 114.264 115.808 120.6 115.808C123.576 115.808 126.36 115.424 128.952 114.656C131.64 113.888 133.56 113.12 134.712 112.352Z" fill="#F2CDAC"/>
</svg>
