<svg width="60" height="60" viewBox="0 0 60 60" fill="none" xmlns="http://www.w3.org/2000/svg">
<path d="M5.625 3.75C5.12772 3.75 4.65081 3.94754 4.29917 4.29917C3.94754 4.65081 3.75 5.12772 3.75 5.625V16.875C3.75 17.3723 3.55246 17.8492 3.20083 18.2008C2.84919 18.5525 2.37228 18.75 1.875 18.75C1.37772 18.75 0.900806 18.5525 0.549175 18.2008C0.197544 17.8492 0 17.3723 0 16.875V5.625C0 4.13316 0.592632 2.70242 1.64752 1.64752C2.70242 0.592632 4.13316 0 5.625 0L16.875 0C17.3723 0 17.8492 0.197544 18.2008 0.549175C18.5525 0.900806 18.75 1.37772 18.75 1.875C18.75 2.37228 18.5525 2.84919 18.2008 3.20083C17.8492 3.55246 17.3723 3.75 16.875 3.75H5.625ZM41.25 1.875C41.25 1.37772 41.4475 0.900806 41.7992 0.549175C42.1508 0.197544 42.6277 0 43.125 0L54.375 0C55.8668 0 57.2976 0.592632 58.3525 1.64752C59.4074 2.70242 60 4.13316 60 5.625V16.875C60 17.3723 59.8025 17.8492 59.4508 18.2008C59.0992 18.5525 58.6223 18.75 58.125 18.75C57.6277 18.75 57.1508 18.5525 56.7992 18.2008C56.4475 17.8492 56.25 17.3723 56.25 16.875V5.625C56.25 5.12772 56.0525 4.65081 55.7008 4.29917C55.3492 3.94754 54.8723 3.75 54.375 3.75H43.125C42.6277 3.75 42.1508 3.55246 41.7992 3.20083C41.4475 2.84919 41.25 2.37228 41.25 1.875ZM1.875 41.25C2.37228 41.25 2.84919 41.4475 3.20083 41.7992C3.55246 42.1508 3.75 42.6277 3.75 43.125V54.375C3.75 54.8723 3.94754 55.3492 4.29917 55.7008C4.65081 56.0525 5.12772 56.25 5.625 56.25H16.875C17.3723 56.25 17.8492 56.4475 18.2008 56.7992C18.5525 57.1508 18.75 57.6277 18.75 58.125C18.75 58.6223 18.5525 59.0992 18.2008 59.4508C17.8492 59.8025 17.3723 60 16.875 60H5.625C4.13316 60 2.70242 59.4074 1.64752 58.3525C0.592632 57.2976 0 55.8668 0 54.375L0 43.125C0 42.6277 0.197544 42.1508 0.549175 41.7992C0.900806 41.4475 1.37772 41.25 1.875 41.25ZM58.125 41.25C58.6223 41.25 59.0992 41.4475 59.4508 41.7992C59.8025 42.1508 60 42.6277 60 43.125V54.375C60 55.8668 59.4074 57.2976 58.3525 58.3525C57.2976 59.4074 55.8668 60 54.375 60H43.125C42.6277 60 42.1508 59.8025 41.7992 59.4508C41.4475 59.0992 41.25 58.6223 41.25 58.125C41.25 57.6277 41.4475 57.1508 41.7992 56.7992C42.1508 56.4475 42.6277 56.25 43.125 56.25H54.375C54.8723 56.25 55.3492 56.0525 55.7008 55.7008C56.0525 55.3492 56.25 54.8723 56.25 54.375V43.125C56.25 42.6277 56.4475 42.1508 56.7992 41.7992C57.1508 41.4475 57.6277 41.25 58.125 41.25ZM11.25 16.875C11.25 16.3777 11.4475 15.9008 11.7992 15.5492C12.1508 15.1975 12.6277 15 13.125 15C13.6223 15 14.0992 15.1975 14.4508 15.5492C14.8025 15.9008 15 16.3777 15 16.875V43.125C15 43.6223 14.8025 44.0992 14.4508 44.4508C14.0992 44.8025 13.6223 45 13.125 45C12.6277 45 12.1508 44.8025 11.7992 44.4508C11.4475 44.0992 11.25 43.6223 11.25 43.125V16.875ZM18.75 16.875C18.75 16.3777 18.9475 15.9008 19.2992 15.5492C19.6508 15.1975 20.1277 15 20.625 15C21.1223 15 21.5992 15.1975 21.9508 15.5492C22.3025 15.9008 22.5 16.3777 22.5 16.875V43.125C22.5 43.6223 22.3025 44.0992 21.9508 44.4508C21.5992 44.8025 21.1223 45 20.625 45C20.1277 45 19.6508 44.8025 19.2992 44.4508C18.9475 44.0992 18.75 43.6223 18.75 43.125V16.875ZM26.25 16.875C26.25 16.3777 26.4475 15.9008 26.7992 15.5492C27.1508 15.1975 27.6277 15 28.125 15C28.6223 15 29.0992 15.1975 29.4508 15.5492C29.8025 15.9008 30 16.3777 30 16.875V43.125C30 43.6223 29.8025 44.0992 29.4508 44.4508C29.0992 44.8025 28.6223 45 28.125 45C27.6277 45 27.1508 44.8025 26.7992 44.4508C26.4475 44.0992 26.25 43.6223 26.25 43.125V16.875ZM33.75 16.875C33.75 16.3777 33.9475 15.9008 34.2992 15.5492C34.6508 15.1975 35.1277 15 35.625 15H39.375C39.8723 15 40.3492 15.1975 40.7008 15.5492C41.0525 15.9008 41.25 16.3777 41.25 16.875V43.125C41.25 43.6223 41.0525 44.0992 40.7008 44.4508C40.3492 44.8025 39.8723 45 39.375 45H35.625C35.1277 45 34.6508 44.8025 34.2992 44.4508C33.9475 44.0992 33.75 43.6223 33.75 43.125V16.875ZM45 16.875C45 16.3777 45.1975 15.9008 45.5492 15.5492C45.9008 15.1975 46.3777 15 46.875 15C47.3723 15 47.8492 15.1975 48.2008 15.5492C48.5525 15.9008 48.75 16.3777 48.75 16.875V43.125C48.75 43.6223 48.5525 44.0992 48.2008 44.4508C47.8492 44.8025 47.3723 45 46.875 45C46.3777 45 45.9008 44.8025 45.5492 44.4508C45.1975 44.0992 45 43.6223 45 43.125V16.875Z" fill="#0D0D0D"/>
</svg>
