<svg width="60" height="94" viewBox="0 0 60 94" fill="none" xmlns="http://www.w3.org/2000/svg">
<path fill-rule="evenodd" clip-rule="evenodd" d="M30 37.5C30.4973 37.5 30.9742 37.3024 31.3258 36.9508C31.6775 36.5992 31.875 36.1223 31.875 35.625V13.9012L39.9225 21.9525C40.0968 22.1268 40.3038 22.2651 40.5316 22.3594C40.7593 22.4538 41.0035 22.5023 41.25 22.5023C41.4965 22.5023 41.7407 22.4538 41.9684 22.3594C42.1962 22.2651 42.4032 22.1268 42.5775 21.9525C42.7518 21.7781 42.8901 21.5712 42.9845 21.3434C43.0788 21.1156 43.1274 20.8715 43.1274 20.625C43.1274 20.3784 43.0788 20.1343 42.9845 19.9065C42.8901 19.6788 42.7518 19.4718 42.5775 19.2975L31.3275 8.04748C31.1533 7.87287 30.9464 7.73433 30.7186 7.63981C30.4908 7.54528 30.2466 7.49663 30 7.49663C29.7534 7.49663 29.5092 7.54528 29.2814 7.63981C29.0536 7.73433 28.8467 7.87287 28.6725 8.04748L17.4225 19.2975C17.0704 19.6496 16.8726 20.1271 16.8726 20.625C16.8726 21.1229 17.0704 21.6004 17.4225 21.9525C17.7746 22.3046 18.2521 22.5023 18.75 22.5023C19.2479 22.5023 19.7254 22.3046 20.0775 21.9525L28.125 13.9012V35.625C28.125 36.1223 28.3225 36.5992 28.6742 36.9508C29.0258 37.3024 29.5027 37.5 30 37.5ZM3.75 46.875C3.75 46.3777 3.94754 45.9008 4.29917 45.5491C4.65081 45.1975 5.12772 45 5.625 45H54.375C54.8723 45 55.3492 45.1975 55.7008 45.5491C56.0525 45.9008 56.25 46.3777 56.25 46.875C56.25 47.3723 56.0525 47.8492 55.7008 48.2008C55.3492 48.5524 54.8723 48.75 54.375 48.75H5.625C5.12772 48.75 4.65081 48.5524 4.29917 48.2008C3.94754 47.8492 3.75 47.3723 3.75 46.875Z" fill="#0D0D0D"/>
<path d="M30 70.6579C31.9891 70.6579 33.8968 69.8677 35.3033 68.4612C36.7098 67.0547 37.5 65.147 37.5 63.1579C37.5 61.1688 36.7098 59.2611 35.3033 57.8546C33.8968 56.4481 31.9891 55.6579 30 55.6579C28.0109 55.6579 26.1032 56.4481 24.6967 57.8546C23.2902 59.2611 22.5 61.1688 22.5 63.1579C22.5 65.147 23.2902 67.0547 24.6967 68.4612C26.1032 69.8677 28.0109 70.6579 30 70.6579Z" fill="#0D0D0D"/>
<path d="M0 48.1579C0 47.1633 0.395088 46.2095 1.09835 45.5062C1.80161 44.803 2.75544 44.4079 3.75 44.4079H56.25C57.2446 44.4079 58.1984 44.803 58.9016 45.5062C59.6049 46.2095 60 47.1633 60 48.1579V78.1579C60 79.1525 59.6049 80.1063 58.9016 80.8095C58.1984 81.5128 57.2446 81.9079 56.25 81.9079H3.75C2.75544 81.9079 1.80161 81.5128 1.09835 80.8095C0.395088 80.1063 0 79.1525 0 78.1579V48.1579ZM11.25 48.1579C11.25 50.147 10.4598 52.0547 9.0533 53.4612C7.64678 54.8677 5.73912 55.6579 3.75 55.6579V70.6579C5.73912 70.6579 7.64678 71.4481 9.0533 72.8546C10.4598 74.2611 11.25 76.1688 11.25 78.1579H48.75C48.75 76.1688 49.5402 74.2611 50.9467 72.8546C52.3532 71.4481 54.2609 70.6579 56.25 70.6579V55.6579C54.2609 55.6579 52.3532 54.8677 50.9467 53.4612C49.5402 52.0547 48.75 50.147 48.75 48.1579H11.25Z" fill="#0D0D0D"/>
</svg>
